<?xml version="1.0" encoding="utf-8"?>
<!-- Generator: Adobe Illustrator 23.0.2, SVG Export Plug-In . SVG Version: 6.00 Build 0)  -->
<svg version="1.1" xmlns="http://www.w3.org/2000/svg" xmlns:xlink="http://www.w3.org/1999/xlink" x="0px" y="0px"
	 viewBox="0 0 500 500" style="enable-background:new 0 0 500 500;" xml:space="preserve">
<style type="text/css">
	.st0{fill:#248E56;}
	.st1{fill:#F5F7FA;}
	.st2{opacity:0.3;fill:#A8B1BE;}
	.st3{fill:#B5BFC9;}
	.st4{opacity:0.43;fill:#80D5F6;}
	.st5{fill:#59BB8D;}
	.st6{fill:none;stroke:#248E56;stroke-width:3;stroke-linecap:round;stroke-linejoin:round;stroke-miterlimit:10;}
	.st7{enable-background:new    ;}
	.st8{clip-path:url(#SVGID_2_);enable-background:new    ;}
	.st9{clip-path:url(#SVGID_4_);}
	.st10{clip-path:url(#SVGID_6_);enable-background:new    ;}
	.st11{clip-path:url(#SVGID_8_);enable-background:new    ;}
	.st12{fill:none;stroke:#248E56;stroke-width:3;stroke-miterlimit:10;}
	.st13{fill:#FFFFFF;}
	.st14{fill:url(#SVGID_9_);}
</style>
<g id="Layer_2">
</g>
<g id="Layer_1">
	<g>
		<path class="st5" d="M95.27,279.15c-3.93,2.27-7.11,7.77-7.1,12.29l0.21,73.98c0.01,4.52,3.21,6.34,7.14,4.07l64.38-37.17
			c3.94-2.27,7.11-7.78,7.1-12.29l-0.21-73.98c-0.01-4.52-3.21-6.34-7.14-4.07L95.27,279.15z"/>
	</g>
	<g>
		<path class="st12" d="M95.27,279.15c-3.93,2.27-7.11,7.77-7.1,12.29l0.21,73.98c0.01,4.52,3.21,6.34,7.14,4.07l64.38-37.17
			c3.94-2.27,7.11-7.78,7.1-12.29l-0.21-73.98c-0.01-4.52-3.21-6.34-7.14-4.07L95.27,279.15z"/>
	</g>
	<path id="XMLID_57_" class="st5" d="M186.38,465.02l-76.57-44.21c-2.77-1.6-4.16-4.4-4.17-7.2c-0.01-2.81,0-7.95,0-7.95
		l175.79-98.36c7.37-4.26,16.46-4.26,23.83,0C324.5,318.4,386,351,386,351s0,4.91,0,7.72c0,2.81-1.39,5.61-4.17,7.22l-171.62,99.09
		C202.84,469.28,193.75,469.28,186.38,465.02z"/>
	<path id="XMLID_68_" class="st3" d="M186.38,456.92l-76.57-44.21c-5.55-3.21-5.55-11.22,0-14.43l171.62-99.09
		c7.37-4.26,16.46-4.26,23.83,0c19.24,11.11,56.97,32.89,76.58,44.21c5.55,3.21,5.55,11.22,0,14.43l-171.62,99.09
		C202.84,461.18,193.75,461.18,186.38,456.92z"/>
	<path id="XMLID_105_" class="st13" d="M112.07,402.19l171.62-99.09c2.93-1.69,6.27-2.59,9.66-2.59c3.38,0,6.72,0.89,9.65,2.59
		l9.43,5.44c1.17,0.68,1.17,2.36,0,3.04l-3.06,1.77c-1.06,0.61-1.06,2.14,0,2.75l33.67,19.44c1.67,0.97,3.73,0.97,5.41,0
		c0.62-0.36,1.28-0.74,1.95-1.12c2.12-1.23,4.74-1.23,6.86,0l22.32,12.89c1.72,0.99,1.91,2.64,1.91,3.3c0,0.66-0.19,2.31-1.91,3.3
		l-171.62,99.09c-2.93,1.69-6.27,2.59-9.66,2.59c-3.39,0-6.73-0.89-9.66-2.59l-76.57-44.21c-1.72-0.99-1.91-2.64-1.91-3.3
		C110.16,404.83,110.35,403.19,112.07,402.19z"/>
	<path id="XMLID_6_" class="st1" d="M340.25,327.92c-0.43,0.34-1.35,0.3-2.04-0.1l-15.86-9.1c-0.69-0.39-0.9-0.99-0.46-1.33
		c0.43-0.34,1.35-0.3,2.04,0.1l15.86,9.1c0.23,0.13,0.4,0.28,0.52,0.44C340.54,327.35,340.54,327.69,340.25,327.92z M317.94,315.15
		c-0.32,0.46-0.21,0.99,0.26,1.19c0.47,0.2,1.11-0.01,1.43-0.47c0.32-0.46,0.21-0.99-0.26-1.19
		C318.91,314.48,318.27,314.69,317.94,315.15z"/>
	<g>
		<path class="st3" d="M306.51,342.7c13.67,7.89,13.75,20.69,0.15,28.59c-13.58,7.89-35.68,7.89-49.36,0
			c-13.68-7.9-13.75-20.7-0.17-28.59C270.73,334.81,292.83,334.81,306.51,342.7z"/>
	</g>
	<linearGradient id="SVGID_2_" gradientUnits="userSpaceOnUse" x1="281.4377" y1="173" x2="281.4377" y2="377.2177">
		<stop  offset="0" style="stop-color:#F5F7FA;stop-opacity:0"/>
		<stop  offset="1" style="stop-color:#F5F7FA"/>
	</linearGradient>
	<path style="fill:url(#SVGID_2_);" d="M400.94,173h-239l86.18,189c1.52,3.4,4.58,6.63,9.19,9.29c13.67,7.89,35.77,7.89,49.36,0
		c3.68-2.14,6.35-4.64,8.03-7.31L400.94,173z"/>
	<g>
		<g>
			<polygon class="st13" points="155.59,279.99 155.69,316.52 144.71,322.86 144.6,286.33 			"/>
		</g>
		<g>
			<polygon class="st13" points="132.92,273 133.08,329.57 122.09,335.92 121.93,279.34 			"/>
		</g>
		<g>
			<polygon class="st13" points="110.39,317.24 110.46,342.63 99.48,348.97 99.4,323.58 			"/>
		</g>
	</g>
	<g>
		<path class="st3" d="M246.08,378.71l-8.91,5.18c4.06,3.12,5.72,6.39,5,9.8c-0.73,3.41-3.74,6.66-9.03,9.74l-9.87-5.7
			c3.4-1.98,5.32-3.98,5.74-6c0.42-2.02-0.69-3.8-3.33-5.32c-2.61-1.51-5.35-2.28-8.22-2.31c-2.87-0.03-5.62,0.71-8.24,2.24
			c-2.35,1.36-3.51,2.88-3.46,4.54c0.03,1.66,1.16,3.87,3.37,6.62c2.21,2.75,3.77,5.01,4.67,6.78c0.9,1.77,1.34,3.46,1.31,5.05
			c-0.03,1.59-0.59,3.13-1.66,4.6c-1.07,1.47-2.83,2.92-5.26,4.33c-4.56,2.65-9.67,3.99-15.32,4.01
			c-5.65,0.02-11.25-1.27-16.79-3.87l-7.9,4.59l-6.48-3.74l7.86-4.57c-4.79-3.45-7.01-6.96-6.66-10.51c0.35-3.56,3.19-6.89,8.54-10
			l9.91,5.72c-3.4,1.98-5.17,4.01-5.31,6.09c-0.14,2.08,1.37,4.03,4.52,5.85c3.1,1.79,6.2,2.72,9.3,2.79
			c3.1,0.07,5.88-0.61,8.34-2.03c2.29-1.33,3.45-2.86,3.49-4.58c0.03-1.72-1.07-3.92-3.29-6.59c-2.22-2.68-3.77-4.86-4.65-6.56
			c-2.96-5.62-1.13-10.35,5.49-14.19c4.48-2.61,9.54-3.96,15.18-4.05c5.63-0.09,11.07,1.06,16.32,3.46l8.83-5.13L246.08,378.71z"/>
	</g>
	<g>
		<path class="st1" d="M398,140.77V141c0,11.19-1.57,22.02-4.51,32.27c-1.11,3.9-2.43,7.71-3.93,11.43
			c-0.56,1.41-1.16,2.81-1.79,4.19c-0.47,1.05-0.95,2.09-1.46,3.12C367.37,231.07,327.33,258,281,258c-64.62,0-117-52.38-117-117
			S216.38,24,281,24c32.47,0,61.85,13.23,83.05,34.59C384.98,79.69,397.94,108.71,398,140.77z"/>
		<g>
			<path class="st5" d="M286.24,189.64c-1.08-5.79-9.4-5.06-9.4-5.06s-0.72-2.53-1.45-3.26c-0.72-0.72-2.53,0.36-2.53,0.36
				s-0.72-1.81-1.09-2.17s-2.17,2.17-2.17,2.17s0.72-2.17,1.45-4.34c0.72-2.17-2.17-5.79-3.26-6.51c-1.09-0.72-4.7,0-5.79-2.17
				c-1.08-2.17-3.98-6.15-5.43-6.87c-1.45-0.72-3.62,1.09-4.7,0c-1.09-1.09-2.17-2.89-2.17-2.89s-1.45,2.53-1.45,4.34h-1.09
				c0,0-0.36-2.17,1.09-4.34c0,0-2.53,0-4.34,2.17c-1.81,2.17-2.53,3.62-2.53,3.62s-1.09-1.81-2.17-1.45s-1.45,1.81-1.45,1.81
				s-3.26-2.53-3.26-5.79s0-6.15-1.09-6.87s-4.7,0-4.7,0s1.81-5.79,1.81-8.68s-2.53,1.45-3.98,3.62c-1.45,2.17-3.26,1.45-4.34,0
				c0,0-3.26-6.15-2.17-12.3s6.15-6.51,6.15-6.51s0.72,1.09,1.81,1.09s1.09-2.17,1.09-2.17s4.34-0.36,5.43,0.72
				c1.09,1.09,2.17,8.32,2.89,8.68s0.72-12.66,0.72-12.66s4.34-3.26,4.34-4.7s0.36-5.79,0.36-5.79s1.45,1.81,1.81,1.09
				c0.36-0.72,2.89-5.43,3.62-5.79s1.81,0.72,1.45-1.09c-0.36-1.81,3.98-4.34,5.43-4.7c0,0-1.45,2.17-0.36,2.53
				c1.09,0.36,4.34-2.17,4.7-3.26s-2.53-0.36-2.89-1.81c-0.36-1.45,0.36-1.81-1.09-1.81c-1.45,0-0.36-0.36,0.72-0.72
				c1.09-0.36,1.09-1.09-0.36-1.45c-1.45-0.36-2.89,1.09-2.89,1.09s0.36-2.17,2.89-2.53s5.79,0.36,6.87-0.36
				c1.08-0.72,1.45-0.72,1.45-0.72s-2.17,4.34-1.81,4.7c0.36,0.36,3.98,0.36,4.7,0.72c0.72,0.36,1.45,1.45,1.81,0.36
				c0.36-1.09-1.81-3.26-2.17-3.62c-0.36-0.36-1.08-0.36-0.36-2.17c0.72-1.81,0-3.98-1.81-5.06c-1.81-1.09-2.89-1.09-3.26-3.62
				s-1.81-6.51-2.53-5.06c-0.72,1.45-2.89,3.62-3.98,1.81c-1.09-1.81-4.7-5.06-6.87-5.06c-2.17,0-1.81,5.79-1.81,5.79
				s1.45,0.36,0.72,2.53c-0.72,2.17-3.62,2.17-3.26,3.26c0.36,1.09-0.36,6.15-2.17,4.34c-1.81-1.81,0-4.7-1.45-5.79
				c-1.45-1.09-6.87-0.36-7.6-3.98c-0.72-3.62,1.81-6.15,5.79-8.68s4.34-3.26,5.79-3.26c1.45,0,2.53-1.09,2.53-2.17
				s-2.17-1.81-2.89-1.45s-0.36,1.09-1.45,1.81c-1.09,0.72-2.53,1.45-1.45,0c1.09-1.45,0.72-2.17-0.36-1.45
				c-1.09,0.72-1.81,0.72-1.81-0.36s-1.09-2.89-1.45-2.89c-0.36,0-2.17,1.09-1.81,1.81c0.36,0.72,0.72,2.53,0.36,2.89
				c-0.36,0.36-1.45,1.09-1.45,0.36c0-0.72,0.36-2.53-0.36-2.53c-0.72,0-1.09,0.72-1.09,1.45c0,0.72-1.09,1.09-1.81,1.09
				c-0.72,0-2.17,0-2.89-0.36c-0.72-0.36-2.17-1.09-2.89,0c-0.72,1.09-2.17,1.45-4.34,0.36s-6.87-3.62-9.77-2.89
				c-2.89,0.72-2.17,1.09-5.06,0c-2.89-1.09-3.98-2.17-5.43-1.81c-1.45,0.36-5.79,2.53-6.15,3.26c-0.36,0.72,0.72,3.26-0.36,3.26
				c-1.09,0-2.89,0.72-2.89,1.45c0,0.72,1.45,0.72,1.09,1.45c-0.36,0.72-3.98,2.53-4.34,4.34c-0.36,1.81,0.36,3.98,0.36,3.98
				s-5.06,3.98-5.06,5.06s7.6-5.79,7.6-5.79s1.81-2.53,2.17-2.17c0.36,0.36,1.45,0,1.81-0.72c0.36-0.72,2.53,0.72,4.34,2.89
				c1.81,2.17,1.09,6.87,1.45,9.04c0.36,2.17-0.36,3.62,0.36,4.34c0.72,0.72,1.45,3.26,0,6.15c-1.45,2.89-2.53,7.6-1.81,11.57
				c0.72,3.98,1.45,6.87,1.45,6.87l2.53,2.17c0,0,1.45,9.77,2.17,11.57c0.72,1.81,3.62,6.51,3.98,6.15
				c0.36-0.36-2.89-6.15-3.26-8.32c-0.36-2.17-1.09-7.6-0.36-5.43c0.72,2.17,2.17,5.79,2.89,6.51c0.72,0.72,0.72,2.53,0.72,2.53
				s2.17,1.81,2.53,3.26c0.36,1.45,0.72,7.96,2.53,9.4c1.81,1.45,2.17,0.72,3.26,2.17s2.53,3.26,3.98,2.89
				c1.45-0.36,2.53-1.81,3.26,0c0.72,1.81,1.81,3.26,4.34,3.98c2.53,0.72,1.81,0,2.89,2.53c1.09,2.53,1.45,3.98,2.17,4.34
				c0.72,0.36,0,1.81,0.72,2.17c0.72,0.36,1.45-1.09,2.17,0s2.17,1.09,2.17,0.36s0.36-2.17,1.09-1.45c0.72,0.72,1.81,8.32,1.81,8.32
				s-3.62,5.06-2.89,7.23s1.09,2.53,1.09,2.53s-0.36,5.43,0,6.15c0.36,0.72,4.34,5.06,5.43,7.96s1.45,4.7,3.98,6.15
				c2.53,1.45,4.34,2.89,5.06,7.6c0.72,4.7,0.72,7.96,1.09,10.49c0.36,2.53,1.09,5.43,1.81,6.15s-0.72,2.53,1.81,5.79
				s0.72,2.89,2.17,6.15s4.7,5.43,6.51,5.79c0,0-2.89-3.98-2.89-8.68s2.53-3.98,3.26-6.15c0.72-2.17-1.08-3.26-1.08-3.26l2.17-0.72
				l3.26-6.51c0,0,0-5.43,3.62-6.15c3.62-0.72,5.79-3.26,5.43-13.02C281.9,200.86,287.33,195.43,286.24,189.64z"/>
			<path class="st5" d="M355.32,203.39c0,0-1.45,0-2.17,1.09s-1.81,4.7-2.89,5.79c-1.09,1.09-3.62,4.7-2.17,5.79
				c0,0,3.98-4.34,7.23-9.04c3.26-4.7,4.7-7.96,4.7-9.04S355.32,203.39,355.32,203.39z"/>
			<path class="st5" d="M244.29,148.41c-0.72,0.36,1.81,0.36,2.17,0.72s1.09-0.36,1.45-0.72c0.36-0.36,2.53,0,2.53,0
				c-1.09-3.26-3.98-2.89-6.51-3.62c-2.53-0.72-4.34-4.7-5.79-5.43c-1.45-0.72-5.06,1.45-4.34,2.17c0.72,0.72,1.81-0.72,2.53-0.72
				s2.53,1.45,3.26,2.17c0.72,0.72,1.09,1.81,1.45,2.89c0.36,1.09,2.89,0.36,3.98,0.72C246.1,146.97,245.01,148.05,244.29,148.41z"
				/>
			<path class="st5" d="M312.28,93.8c0.72,0.36,2.89-1.09,3.26-1.81c0.36-0.72,0-2.53,0-2.53s0.36-1.45,1.09-1.09
				c0.72,0.36,1.81,1.45,1.45,1.81s-1.09,0-1.09,0.72c0,0.72,0.72,1.09,0.36,1.45c-0.36,0.36-1.45,1.09,0,1.45
				c1.45,0.36-1.45,1.45-0.72,1.81c0.72,0.36,6.15-0.36,6.51-1.81s0-1.81-1.45-2.89c-1.45-1.09-3.98-3.98-3.98-4.34
				s1.08-1.45,0-2.53c-1.09-1.09-2.53-1.45-3.26-0.36s-0.36,2.89,0.36,3.26c0.72,0.36,1.09,1.09,0,1.09c-1.08,0-2.53,0-2.53,0.72
				c0,0.72-1.45,0.36-1.45,1.09C310.84,90.55,311.56,93.44,312.28,93.8z"/>
			<path class="st5" d="M364.05,58.59c-1.75-1.26-6.33-4.5-6.92-4.21c-0.72,0.36,2.17,1.81,3.26,2.53c1.08,0.72,1.81,0.72,2.17,1.81
				c0.36,1.09-0.36,0.72-0.36,1.81c0,1.09,0.36,5.43-0.36,4.7c-0.72-0.72-2.53-2.89-3.62-1.45c-1.08,1.45,1.09,2.89,1.09,2.89
				l1.81,2.17c0,0-7.6-2.89-8.68-4.7c-1.09-1.81,1.45-3.62,2.17-4.34c0.72-0.72-1.45-2.17-3.26,0c-1.81,2.17-1.08,5.43,0.72,6.51
				c1.81,1.09,3.26,1.09,3.26,1.09l2.17,1.09c0,0-2.17,1.45-2.89,1.09c-0.72-0.36-1.81,0.72-2.53,1.45
				c-0.72,0.72-2.53,1.09-2.89,1.81s-1.45,2.53-2.53,2.53c-1.09,0-4.7-3.62-2.89-3.26c1.81,0.36,4.34,0.72,4.7,0
				c0.36-0.72-0.72-2.17-3.26-2.89c-2.53-0.72-3.98-0.36-5.43-1.81c-1.45-1.45-4.7-2.53-7.6-0.72c-2.89,1.81-3.26,2.53-3.98,5.06
				c-0.72,2.53-1.81,3.62-3.62,5.06s-1.81,4.7,0,6.51c1.81,1.81,3.98-1.45,4.34-1.09c0.36,0.36,2.53,3.26,2.17,3.98
				c-0.36,0.72-1.08-1.09-1.81-1.45c-0.72-0.36-1.81-0.36-1.81,0.72s1.45,3.98,1.45,4.34c0,0.36-1.45,0.72-2.17,1.09
				c-0.72,0.36-1.45,2.89-2.17,3.26s-0.36,1.09-1.09,1.81c-0.72,0.72-2.17,0.36-2.53,1.09c-0.36,0.72-2.89-0.36-3.26,0.72
				c-0.36,1.09,1.81,1.45,3.26,2.53s0.72,1.09,0.72,1.09v4.7c0,0-5.79-1.09-6.87,0c-1.08,1.09-0.36,1.81,0,3.26
				s-0.72,5.79,0.72,6.87c1.45,1.09,3.98,1.45,6.51,0.36c2.53-1.09,1.08-5.06,2.17-6.51c1.08-1.45,2.53-0.36,2.53-2.53
				c0-2.17-0.36-1.81,1.81-1.45c2.17,0.36,2.53-1.45,3.62-1.09c1.08,0.36,1.81,0.72,1.08,1.45c-0.72,0.72-1.45,2.17-1.08,4.7
				c0.36,2.53,1.08,2.89,1.08,0.36s0-3.98,0.72-3.98c0.72,0,1.08,2.53,2.89,2.89s2.89,2.17,2.89,3.26s-1.45,1.45-1.45,1.45
				s-2.17,0-1.81,0.72c0.36,0.72,2.89,1.81,3.26,1.45c0.36-0.36-0.36-1.81,0-2.17c0.36-0.36,1.09-1.09,1.09-2.17
				s-1.09-1.09-0.36-1.45c0.72-0.36,1.08-0.72,0-1.45c-1.09-0.72-2.89-1.81-4.34-3.62c-1.45-1.81-0.72-3.98-0.72-3.98
				s1.45,2.53,3.62,3.98s2.17,1.81,2.89,3.26c0.72,1.45,0.72,1.81,1.81,3.26c1.09,1.45,1.45,4.34,3.26,6.15s3.26,0.36,3.26,0.36
				s-2.89,0-3.26-1.81c-0.36-1.81,0.72-2.17,0-3.62s-1.09-2.17-0.36-2.89c0.72-0.72,1.45-0.72,1.81,0c0.03,0.06,0.05,0.11,0.07,0.16
				c0.72-0.35,2.1-1.07,2.1-1.61c0-0.72,0.36-1.09-0.72-1.81c-1.08-0.72,0.36-1.09,0-2.89c-0.36-1.81,0.72-3.26,1.81-3.62
				c1.09-0.36,1.81,2.17,2.53,3.26c0.72,1.09,1.09-1.09,1.81-1.09c0.72,0,5.06,3.26,5.43,4.7s-3.26,1.45-5.79,0.36
				c-2.53-1.09-3.62,0.72-3.62,1.45c0,0.72-0.36,0.72-1.45,1.09c-0.65,0.22-1.44,0.57-1.96,0.81c0.04,0.35,0.1,0.74,0.51,1.36
				c0.72,1.09,0.36,3.62,2.17,4.34c1.81,0.72,1.45-0.72,2.53-0.36c1.09,0.36,1.81,1.09,2.53,0.72c0.72-0.36,1.45-1.09,1.81,0.36
				c0.36,1.45,1.09,6.87-1.08,7.96s-5.43,0.36-8.32-1.45c-2.89-1.81-4.7-2.17-4.34,0c0.36,2.17,0,3.62-1.81,2.17
				s-2.17-2.89-3.26-3.26c-1.08-0.36-1.81,1.09-2.53-0.72c-0.72-1.81-1.45-5.43-2.53-6.51c-1.09-1.09-2.53-1.09-4.7,0.36
				s-4.34,3.26-7.23,2.89c-2.89-0.36-3.62-1.45-4.34-0.36c-0.72,1.09-2.17,2.89-2.53,4.34c-0.36,1.45,0,5.06-1.08,6.15
				c-1.09,1.09-2.89,2.89-3.62,3.98c-0.72,1.09-2.89,6.51-3.26,8.68c-0.36,2.17,1.45,2.53,1.81,4.34c0.36,1.81-0.36,2.89-1.08,5.06
				s-2.89,3.98-1.45,6.51c1.45,2.53,3.98,6.51,5.43,9.04c1.45,2.53,2.17,4.34,5.06,4.34c2.89,0,4.34,0.36,6.15-1.09
				c1.81-1.45,3.26-1.45,4.7-1.45c1.45,0,1.08,3.26,1.08,3.26s2.17-0.72,2.89,0c0.72,0.72,1.08,4.34,0.36,5.79
				c-0.72,1.45-2.53,1.09-1.09,4.34c1.45,3.26,1.81,11.57,0.72,14.11c-1.09,2.53-3.98,5.79-3.98,9.04s-0.36,5.43-1.81,10.13
				c-1.45,4.7-1.81,11.21-1.81,11.21s6.87-2.53,10.85-6.87s6.15-4.7,6.87-6.51c0.72-1.81,1.45-4.7,4.7-6.87s6.51-6.87,7.6-13.74
				c1.08-6.87,2.89-10.13,7.23-15.55s6.15-7.23,7.6-12.66c1.36-5.09,1.76-5.72,1.8-5.78l-5.42,2.89c0,0-2.89-8.32-5.06-14.83
				c-2.17-6.51-2.89-15.19-1.81-15.19c1.08,0,3.26,7.6,3.62,10.49c0.36,2.89,2.17,2.53,2.17,5.43s0.72,9.04,1.81,9.77
				c1.08,0.72,10.13-7.23,10.85-12.3s0-5.79-0.36-6.15c-0.36-0.36-0.72-0.72-0.72-2.17c0-1.45-1.08-2.17-1.08-1.45
				s-0.36,2.89-1.09,2.89c-0.72,0-1.08-0.36-1.08-1.81c0-1.45-1.09-2.89-1.09-1.45c0,1.45-0.72,1.81-0.72,0.36
				c0-1.45-1.45-2.53-1.45-3.98s0.36-4.7,1.45-1.81c1.08,2.89,2.17,5.43,2.89,4.7c0.72-0.72,1.45-1.45,2.17,0.36
				c0.72,1.81,3.62,2.53,5.79,1.45c0,0,0.36,2.53,1.09,3.26c0.72,0.72,1.08,1.45,0.72,2.17s0,0.72,1.09,1.81
				c1.08,1.09,0.72,14.11,0.72,14.11s-1.45,8.32-0.72,8.68c0.72,0.36,1.08-1.81,1.08-1.81s0.36,1.81,0,3.26
				c-0.36,1.45,1.09,1.81,1.45-1.09c0.36-2.89,0.36-7.96,0.36-8.68s1.09-5.06,1.09-5.06s2.53-8.32,2.89-9.04s1.09-1.45,1.09-1.81
				c0,0,1.08,1.09,1.08,5.79s0.36,4.34,0.36,5.06s0,2.89-0.36,5.43c-0.36,2.53-1.81,6.51-1.81,8.32c0,1.81,0,3.26,0,3.26l-0.72,2.89
				c0,0-0.36-3.62-0.72-3.26c-0.36,0.36-0.72,2.53-0.72,5.79s-1.08,5.06-1.81,7.96c-0.72,2.89-2.17,5.79-2.17,7.6
				c0,0.28,0.09,0.59,0.25,0.93c0.5-1.03,0.99-2.08,1.46-3.12c0.27-1.46,0.73-3.67,1.18-5.03c0,0,0.26,0.37,0.6,0.84
				c1.5-3.72,2.81-7.53,3.93-11.43c-1.01,2.35-2.59,5.99-3.08,6.96c0.04-0.26,0.74-4.4,1.44-6.5c0.72-2.17,1.09-5.06,1.09-6.15
				s0.36-3.62,0.72-4.34c0.33-0.66,0.66-2.51,0.72-2.84c-0.04,0.46-0.33,3.59,0.01,3.92c0.36,0.36,2.17-3.26,2.17-6.15
				s0-7.96,0.36-9.77c0.22-1.13,0.73-4.93,1.09-7.63v-0.01C397.94,108.71,384.98,79.69,364.05,58.59z M341.58,81.87
				c-2.17,0.36-2.89,0.36-2.89,1.09c0,0.72,0.72,0.72,1.45,0.72c0.72,0,1.81,1.81,0.72,1.81c-1.09,0-2.17-1.09-2.17-0.36
				c0,0.72,1.08,2.53,0.36,3.26c-0.72,0.72-1.45,1.09-1.45,0.72s-0.72-0.72-1.45-0.36c-0.72,0.36-1.45,1.09-2.17,1.09
				c-0.72,0-0.72-0.72-1.09-0.72s-2.17,0-2.89-0.36c0,0,0.72,0,2.53-0.72c1.81-0.72,1.08-1.81,2.17-2.17c1.08-0.36-0.36,0-0.36-1.45
				s1.81-1.81,1.08-2.89c-0.72-1.09-2.17-2.17-2.17-3.26s1.45-1.81,1.81-2.89s0.36-2.53,1.45-2.17c1.08,0.36,1.08,0.72,0.36,2.17
				s-1.09,3.62,0.36,4.7s3.26,1.09,4.7,0.72C343.39,80.42,343.75,81.51,341.58,81.87z M355.68,102.48
				c-0.72-0.36-0.72-1.45-0.72-1.45s1.81-1.45,2.17-0.36S356.41,102.84,355.68,102.48z"/>
			<path class="st5" d="M296.73,64.87c-0.72-1.45,0.36-1.09,0.72-2.89c0.36-1.81-1.45-2.17-1.09-3.62s-0.36-3.26,1.45-3.26
				s5.43-0.72,5.06-1.45c-0.36-0.72-5.43,0.72-6.87,0c-1.45-0.72-1.81-1.81-6.51-2.17c-4.7-0.36-11.57-0.36-11.94,0.36
				c-0.36,0.72,1.08,1.09,0,1.09c-1.09,0-6.51-0.36-7.96,0c-1.45,0.36-1.45,0.72-2.89,1.09c-1.45,0.36-4.7,0-4.7,0.72
				s0.36,1.09-1.08,1.45c-1.45,0.36-4.34,0.36-3.98,1.09s3.98,0.72,3.26,1.09c-0.72,0.36-3.62,0-2.17,1.09
				c1.45,1.09,6.87,0.72,8.32,1.09c1.45,0.36,3.26,2.17,2.89,3.26s-1.09,1.81,0.36,1.81s2.89,0.36,1.81,0.72
				c-1.09,0.36-2.89,0.72-2.53,1.45c0.36,0.72,3.26,1.09,3.26,1.09s-1.81,0.36-2.17,2.17c-0.36,1.81,2.17,7.23,3.62,7.96
				s2.53,1.09,3.26,1.45c0.72,0.36,1.45,1.45,2.17,0c0.72-1.45,1.81-5.79,3.26-6.87c1.45-1.09,5.06-2.17,6.15-3.26
				c1.09-1.09,4.34-1.45,6.51-2.17C297.09,67.4,297.46,66.32,296.73,64.87z"/>
			<path class="st5" d="M258.76,72.46c0,0,0.72,1.09,1.45,1.09c0.72,0,2.53-1.09,2.53-1.81c0-0.72-3.62-1.81-3.98-2.89
				c-0.36-1.09,0-0.72-0.36-2.17c-0.36-1.45-3.26-1.09-4.34-1.09c-1.09,0-1.81-2.17-2.53-2.89s-2.53-0.72-4.34-0.36
				c-1.81,0.36-2.89,2.53-2.89,2.53c-0.36-1.09,0.72-1.81,1.45-2.53c0.72-0.72-1.45-0.36-2.53,0.36s-2.53,2.53-2.17,3.62
				c0.36,1.09,5.43,0.72,6.51,0.36s2.17,0.72,2.89,1.45c0.72,0.72,3.62,2.17,2.89,3.26s-1.45,1.45-2.53,1.81
				c-1.09,0.36-2.53,0-3.26,0.72c-0.72,0.72,2.53,0.72,3.98,1.09c1.45,0.36,1.09,0.72,1.81,1.81s3.98,1.81,4.34,1.45
				c0.36-0.36-1.45-2.17-1.08-2.17c0.36,0,1.81,1.09,2.17,1.45c0.36,0.36,1.08-1.81,0.72-2.89c-0.36-1.09-1.81-0.72-2.17-2.17
				S258.76,72.46,258.76,72.46z"/>
			<path class="st5" d="M216.44,65.59c1.09,0.72,3.62-1.81,3.62-1.09c0,0.72,1.81,1.09,2.53,1.81c0.72,0.72-1.81,0.36-2.53,0.72
				c-0.72,0.36,0.72,1.09,2.17,2.17c1.45,1.09,2.53-0.72,3.62-1.45s1.45,0.36,2.89,1.09c1.45,0.72,1.45,0,1.45-0.72
				c0-0.72,1.09-0.36,1.45-1.09c0.36-0.72-1.45-1.45-1.81-2.17c-0.36-0.72,1.45-2.17,1.45-2.17c-0.72-1.09-2.17-0.36-2.89,1.09
				c-0.72,1.45-0.72,0.36-1.09,0c-0.36-0.36-1.09,0.36-3.26-0.72c-2.17-1.09-2.17-2.17-3.98-1.45S215.36,64.87,216.44,65.59z"/>
			<path class="st5" d="M234.16,62.34c0,0-0.72,0.36-1.09,0.72c-0.36,0.36-1.09,0.36-1.45,0.72c-0.36,0.36,1.09,1.45,1.09,1.45
				s1.81,0,2.53-0.36c0.72-0.36,0.72-1.09,0.72-1.81c0-0.72,0.36-0.36,0-0.72C235.61,61.98,234.16,62.34,234.16,62.34z"/>
			<path class="st5" d="M224.04,60.17c1.45,0.36,0.72,1.45,1.45,1.81c0.72,0.36,4.34-0.72,5.43-1.09s3.26-0.72,3.26-0.72
				s0.72,0.72,1.81,0.72s1.81-1.09,1.81-1.45c0-0.36,1.45-0.36,2.53,0c1.09,0.36,0.72,1.45,1.09,1.81c0.36,0.36,2.89,0,6.15,0
				s3.98-1.09,3.98-1.09l-7.96-0.36l1.81-0.36c0,0,4.34,0,5.06,0s1.81-0.36,1.81-0.36s2.17-1.09,2.89-1.45
				c0.72-0.36,1.08-1.09,2.17-1.81c1.08-0.72,2.17-1.09,3.62-1.45c1.45-0.36,5.79-1.45,5.79-1.45s-4.34-1.45-10.49-1.45
				c-6.15,0-7.6,1.09-9.4,1.09c-1.81,0-1.45,0.72-1.09,1.45c0.36,0.72,5.06,0.72,5.06,0.72s-2.17,0.72-3.98,0.36
				c-1.81-0.36-2.53-1.09-2.89-1.45c-0.36-0.36-3.62,0.72-2.89,1.81c0.72,1.09,4.34,2.17,4.34,2.17l-1.45,0.72h-2.89l-3.62,0.36
				l-2.17,0.36c0,0-2.17,0.36-3.62,0.36c-1.45,0-1.09-0.36-1.09-1.09s-1.45,0-1.09,1.45c0.36,1.45-0.72,0.36-1.45,0.36
				s-1.09-0.72-1.81-1.09s0.72-1.09,0-1.45c-0.72-0.36-5.06,1.45-5.06,1.45C218.97,59.44,222.59,59.81,224.04,60.17z"/>
			<path class="st5" d="M235.97,57.64c2.17,0.36,2.17-0.36,2.17-1.09s-3.26-0.72-3.26-0.72C233.8,55.83,233.8,57.27,235.97,57.64z"
				/>
			<path class="st5" d="M241.4,57.27c0-0.36-1.45-0.36-1.45-0.36C238.87,58.36,241.4,57.64,241.4,57.27z"/>
			<path class="st5" d="M237.78,64.15c0,0,1.09,0,2.17-0.36c1.09-0.36,1.81-0.72,1.45-1.09c-0.36-0.36-1.81,0-2.17-0.36
				c-0.36-0.36,0.36-1.09,0.36-1.45s0.36-0.36-0.36-0.36s-1.81,0.36-1.45,0.72c0.36,0.36,0,0.72-0.36,1.09
				C237.06,62.7,236.7,64.15,237.78,64.15z"/>
			<path class="st5" d="M303.24,72.1c-1.45,0-4.7,0.72-4.7,0.72s-1.08-0.72-1.81-0.36c-0.72,0.36-0.36,1.45,0.36,1.45
				c0.72,0,1.09,0.72,0.36,1.09c-0.72,0.36-0.72,0.72,0.36,0.72c1.08,0,0.72,0.36,2.17,0.72s6.15-1.45,5.79-2.17
				C305.41,73.55,304.69,72.1,303.24,72.1z"/>
		</g>
		<path class="st12" d="M398.5,140.77V141c0,11.19-1.57,22.02-4.51,32.27c-1.11,3.9-2.43,7.71-3.93,11.43
			c-0.56,1.41-1.16,2.81-1.79,4.19c-0.47,1.05-0.95,2.09-1.46,3.12C367.87,231.07,327.83,258,281.5,258c-64.62,0-117-52.38-117-117
			s52.38-117,117-117c32.47,0,61.85,13.23,83.05,34.59C385.48,79.69,398.44,108.71,398.5,140.77z"/>
	</g>
</g>
</svg>
