<?xml version="1.0" encoding="utf-8"?>
<!-- Generator: Adobe Illustrator 23.0.2, SVG Export Plug-In . SVG Version: 6.00 Build 0)  -->
<svg version="1.1" xmlns="http://www.w3.org/2000/svg" xmlns:xlink="http://www.w3.org/1999/xlink" x="0px" y="0px"
	 viewBox="0 0 500 500" style="enable-background:new 0 0 500 500;" xml:space="preserve">
<style type="text/css">
	.st0{fill:#248E56;}
	.st1{fill:#F5F7FA;}
	.st2{opacity:0.3;fill:#A8B1BE;}
	.st3{fill:#B5BFC9;}
	.st4{opacity:0.43;fill:#80D5F6;}
	.st5{fill:#59BB8D;}
	.st6{fill:none;stroke:#248E56;stroke-width:3;stroke-linecap:round;stroke-linejoin:round;stroke-miterlimit:10;}
	.st7{enable-background:new    ;}
	.st8{clip-path:url(#SVGID_2_);enable-background:new    ;}
	.st9{clip-path:url(#SVGID_4_);}
	.st10{clip-path:url(#SVGID_6_);enable-background:new    ;}
	.st11{clip-path:url(#SVGID_8_);enable-background:new    ;}
	.st12{fill:none;stroke:#248E56;stroke-width:3;stroke-miterlimit:10;}
	.st13{fill:#FFFFFF;}
	.st14{fill:url(#SVGID_9_);}
</style>
<g id="Layer_2">
</g>
<g id="Layer_1">
	<g>
		<g>
			<g>
				<g>
					<path class="st0" d="M245.67,374.56l-22.52-64.67l-1.62,0.92l-0.09-0.25l-50.06,28.36v47.66c0,3.94,2.1,7.58,5.51,9.55
						l44.75,25.82l68.95-39.81v-2.43v-2.92v-2.3L245.67,374.56z"/>
					<path class="st1" d="M178.49,358.02v25.72c0,2.3,1.22,4.42,3.21,5.57l41.63,24.03l67.26-38.83l-40.57-23.42
						c-2.65-1.52-4.28-4.35-4.28-7.4v-24.49L178.49,358.02z"/>
					<polygon class="st2" points="178.49,358.02 178.49,377.67 245.75,338.83 245.75,319.19 					"/>
					<path class="st0" d="M338.58,55.81c-0.19-0.02-0.43-0.05-0.64-0.05h-0.19c-0.24-0.02-0.5-0.02-0.73,0
						c-0.12,0.02-0.24,0.02-0.35,0.05c-0.21,0.02-0.43,0.05-0.61,0.09c-0.17,0.02-0.33,0.05-0.5,0.09
						c-0.17,0.05-0.35,0.09-0.52,0.14c-0.26,0.09-0.54,0.19-0.83,0.28c-0.17,0.07-0.31,0.12-0.45,0.19
						c-0.5,0.21-0.99,0.45-1.49,0.73L94.06,194.89c-0.76,0.43-1.49,0.97-2.22,1.54c-0.24,0.19-0.45,0.4-0.66,0.59
						c-0.52,0.45-1.02,0.9-1.49,1.4c-0.14,0.12-0.26,0.26-0.4,0.4c-0.59,0.66-1.16,1.35-1.7,2.06c-0.05,0.07-0.12,0.17-0.17,0.24
						c-0.59,0.8-1.14,1.63-1.63,2.51c-0.02,0.02-0.02,0.05-0.05,0.07c-0.52,0.9-0.97,1.8-1.4,2.74c0,0.02,0,0.02-0.02,0.05
						c-0.4,0.92-0.73,1.84-1.02,2.77c-0.02,0.09-0.05,0.17-0.07,0.24c-0.26,0.88-0.45,1.73-0.59,2.58
						c-0.02,0.14-0.05,0.28-0.07,0.43c-0.14,0.9-0.21,1.8-0.21,2.67l0.52,188.32c0.02,3.69-0.09,5.49,2.01,6.72l-10.24-5.96
						c-2.1-1.23-3.43-3.83-3.43-7.55l-0.54-188.3c0-0.76,0.05-1.54,0.17-2.32c0-0.12,0.05-0.26,0.07-0.38
						c0-0.14,0.05-0.28,0.07-0.43c0.05-0.28,0.07-0.54,0.14-0.83c0.09-0.45,0.19-0.9,0.33-1.35c0.02-0.12,0.07-0.26,0.12-0.38
						c0.02-0.09,0.05-0.17,0.07-0.26c0.05-0.17,0.09-0.35,0.17-0.54c0.12-0.38,0.26-0.76,0.4-1.11c0.14-0.35,0.28-0.71,0.43-1.06
						c0,0,0.02-0.02,0.02-0.05c0,0,0.02-0.02,0.02-0.05c0.14-0.31,0.26-0.61,0.43-0.92c0.17-0.33,0.33-0.66,0.5-0.99
						c0.14-0.28,0.31-0.54,0.47-0.83c0-0.02,0.02-0.05,0.02-0.07c0.02-0.02,0.05-0.05,0.05-0.09c0.21-0.33,0.4-0.66,0.61-0.99
						c0.21-0.33,0.45-0.66,0.69-0.99c0.09-0.14,0.19-0.28,0.31-0.43c0.05-0.07,0.09-0.14,0.17-0.21c0.09-0.14,0.19-0.28,0.31-0.43
						c0.31-0.4,0.61-0.78,0.95-1.16c0.14-0.17,0.31-0.33,0.45-0.5c0.14-0.14,0.26-0.26,0.4-0.4c0.14-0.17,0.28-0.33,0.43-0.47
						c0.33-0.33,0.71-0.61,1.04-0.92c0.24-0.19,0.45-0.4,0.69-0.59c0.71-0.57,1.44-1.09,2.2-1.54L320.6,50.58
						c0.5-0.31,0.99-0.54,1.47-0.76c0.05-0.02,0.12-0.05,0.17-0.07c0.12-0.05,0.19-0.07,0.31-0.09c0.26-0.12,0.54-0.21,0.83-0.28
						c0.07-0.05,0.17-0.07,0.26-0.09c0.09-0.02,0.17-0.05,0.26-0.07c0.17-0.02,0.31-0.07,0.47-0.09c0.09-0.02,0.21-0.05,0.31-0.07
						c0.09,0,0.21,0,0.31-0.02C325.1,49,325.22,49,325.34,49c0.07-0.02,0.14-0.02,0.21-0.02c0.19-0.02,0.35,0,0.54,0h0.17
						c0.02,0,0.05,0,0.05,0c0.26,0.02,0.5,0.05,0.71,0.07c0.05,0.02,0.09,0.02,0.12,0.05c0.07,0,0.14,0.02,0.21,0.05
						c0.12,0.02,0.24,0.05,0.33,0.07c0.12,0.02,0.21,0.07,0.31,0.09c0.07,0.02,0.14,0.05,0.21,0.07c0.02,0.02,0.07,0.02,0.12,0.05
						c0.19,0.09,0.38,0.19,0.57,0.28c0.02,0.02,0.05,0.02,0.07,0.05l9.15,5.32L338.58,55.81z"/>
					<g>
						<path class="st1" d="M329.68,56.02c6.49-3.75,11.77-0.74,11.79,6.72L342,251.05c0.02,7.44-5.22,16.53-11.71,20.28
							L92.08,408.86c-6.49,3.75-11.77,0.73-11.79-6.72l-0.53-188.31c-0.02-7.46,5.22-16.53,11.71-20.28L329.68,56.02z"/>
					</g>
					
						<ellipse transform="matrix(0.4036 -0.915 0.915 0.4036 -162.9067 382.7554)" class="st3" cx="212.12" cy="316.33" rx="10.92" ry="6.55"/>
					<path class="st4" d="M331.83,217.73l-46.5,26.85l-131.46,75.9l-63.62,36.73l-0.4-149.39c-0.02-1.09,0.73-2.37,1.66-2.91
						L329.7,67.37c0.97-0.54,1.7-0.12,1.7,0.97L331.83,217.73z"/>
					<path class="st5" d="M341.47,62.54c-0.02-7.46-5.29-10.47-11.79-6.72L91.47,193.35c-6.49,3.75-11.73,12.82-11.71,20.28
						l0.46,160.96l261.7-151.09L341.47,62.54z M91.51,204.91L329.71,67.38c0.95-0.55,1.69-0.13,1.7,0.97l0.42,149.39L90.26,357.21
						l-0.42-149.39C89.83,206.73,90.57,205.45,91.51,204.91z"/>
				</g>
			</g>
			<g>
				<path class="st3" d="M125.54,228.12c4.55-2.63,8.24-9.01,8.22-14.25c-0.01-5.24-3.72-7.35-8.28-4.72
					c-4.56,2.63-8.24,9.01-8.23,14.25C117.28,228.64,120.98,230.75,125.54,228.12z"/>
				<polygon class="st3" points="148.14,201.92 148.16,209.22 304.23,118.48 304.23,111.78 				"/>
				<polygon class="st3" points="148.09,253.55 304.23,162.78 304.23,156.07 148.07,246.26 				"/>
				<polygon class="st3" points="148.03,298.85 304.23,208.04 304.23,201.33 148.01,291.56 				"/>
				<path class="st3" d="M125.65,272.08c4.55-2.63,8.24-9.01,8.22-14.25c-0.01-5.24-3.72-7.35-8.28-4.72
					c-4.56,2.63-8.24,9.01-8.23,14.25C117.39,272.6,121.1,274.71,125.65,272.08z"/>
				<path class="st3" d="M125.72,297.07c-4.56,2.63-8.24,9.01-8.23,14.24c0.01,5.24,3.72,7.35,8.28,4.72
					c4.55-2.63,8.24-9.01,8.22-14.25C133.98,296.55,130.27,294.44,125.72,297.07z"/>
			</g>
		</g>
		<path class="st6" d="M341.92,222.54L341.92,222.54l-0.46-160.96c-0.01-3.91-1.47-6.58-3.79-7.71l-8.73-5.07
			c-0.02-0.02-0.05-0.02-0.07-0.05c-0.19-0.09-0.38-0.19-0.57-0.28c-0.05-0.02-0.09-0.02-0.12-0.05c-0.07-0.02-0.14-0.05-0.21-0.07
			c-0.09-0.02-0.19-0.07-0.31-0.09c-0.09-0.02-0.21-0.05-0.33-0.07c-0.07-0.02-0.14-0.05-0.21-0.05c-0.02-0.02-0.07-0.02-0.12-0.05
			c-0.21-0.02-0.45-0.05-0.71-0.07c0,0-0.02,0-0.05,0h-0.17c-0.19,0-0.35-0.02-0.54,0c-0.07,0-0.14,0-0.21,0.02
			c-0.12,0-0.24,0-0.35,0.02c-0.09,0.02-0.21,0.02-0.31,0.02c-0.09,0.02-0.21,0.05-0.31,0.07c-0.17,0.02-0.31,0.07-0.47,0.09
			c-0.09,0.02-0.17,0.05-0.26,0.07c-0.09,0.02-0.19,0.05-0.26,0.09c-0.28,0.07-0.57,0.17-0.83,0.28c-0.12,0.02-0.19,0.05-0.31,0.09
			c-0.05,0.02-0.12,0.05-0.17,0.07c-0.47,0.21-0.97,0.45-1.47,0.76L82.38,187.14c-0.76,0.45-1.49,0.97-2.2,1.54
			c-0.24,0.19-0.45,0.4-0.69,0.59c-0.33,0.31-0.71,0.59-1.04,0.92c-0.14,0.14-0.28,0.31-0.43,0.47c-0.14,0.14-0.26,0.26-0.4,0.4
			c-0.14,0.17-0.31,0.33-0.45,0.5c-0.33,0.38-0.64,0.76-0.95,1.16c-0.12,0.14-0.21,0.28-0.31,0.43c-0.07,0.07-0.12,0.14-0.17,0.21
			c-0.12,0.14-0.21,0.28-0.31,0.43c-0.24,0.33-0.47,0.66-0.69,0.99c-0.21,0.33-0.4,0.66-0.61,0.99c0,0.05-0.02,0.07-0.05,0.09
			c0,0.02-0.02,0.05-0.02,0.07c-0.17,0.28-0.33,0.54-0.47,0.83c-0.17,0.33-0.33,0.66-0.5,0.99c-0.17,0.31-0.28,0.61-0.43,0.92
			c0,0.02-0.02,0.05-0.02,0.05c0,0.02-0.02,0.05-0.02,0.05c-0.14,0.35-0.28,0.71-0.43,1.06c-0.14,0.35-0.28,0.73-0.4,1.11
			c-0.07,0.19-0.12,0.38-0.17,0.54c-0.02,0.09-0.05,0.17-0.07,0.26c-0.05,0.12-0.09,0.26-0.12,0.38c-0.14,0.45-0.24,0.9-0.33,1.35
			c-0.07,0.28-0.09,0.54-0.14,0.83c-0.02,0.14-0.07,0.28-0.07,0.43c-0.02,0.12-0.07,0.26-0.07,0.38c-0.12,0.78-0.17,1.56-0.17,2.32
			l0.54,188.3c0,3.71,1.32,6.32,3.43,7.55l8.15,4.74c0.59,0.53,1.26,0.92,2.01,1.17l0.08,0.05c-0.02-0.01-0.04-0.03-0.06-0.04
			c2,0.65,4.52,0.29,7.26-1.29l79.3-45.78v23.51c0,3.94,2.1,7.58,5.51,9.55L221.64,421l68.95-39.81v-2.43v-2.92v-2.3l-40.57-23.42
			c-2.65-1.52-4.28-4.35-4.28-7.4v-23.54l84.54-48.81c6.49-3.75,11.73-12.84,11.71-20.28L341.92,222.54z"/>
	</g>
	<g>
		<g>
			<polygon class="st0" points="370.99,431.15 352.02,420.12 351.95,396.16 370.93,407.18 			"/>
		</g>
		<path class="st5" d="M403.58,344.11c0.07-0.5,0.1-1.01,0.15-1.52c0.03-0.29,0.06-0.59,0.08-0.88c0.06-0.89,0.09-1.78,0.09-2.68
			c-0.02-7-1.98-11.67-5.86-14.01c-0.04-0.03-0.08-0.05-0.13-0.08l-18.98-11.03c0.04,0.02,0.09,0.05,0.13,0.08
			c3.88,2.34,5.84,7.01,5.86,14.01c0,0.9-0.03,1.79-0.09,2.68c-0.02,0.29-0.06,0.58-0.08,0.87c-0.05,0.59-0.11,1.17-0.19,1.75
			c-0.11,0.78-0.25,1.56-0.4,2.34c-0.04,0.21-0.07,0.41-0.11,0.62c-0.04,0.16-0.08,0.33-0.12,0.49c-0.16,0.7-0.33,1.39-0.53,2.08
			c-0.06,0.21-0.13,0.43-0.2,0.64c-0.2,0.65-0.41,1.29-0.64,1.94c-0.06,0.18-0.12,0.36-0.19,0.53c-0.29,0.78-0.61,1.55-0.95,2.32
			c-0.07,0.15-0.14,0.29-0.2,0.44c-0.34,0.74-0.69,1.47-1.07,2.2c-0.04,0.08-0.08,0.16-0.12,0.24c-0.46,0.86-0.94,1.72-1.46,2.58
			c-0.52,0.85-1.07,1.69-1.65,2.51c-0.06,0.09-0.13,0.17-0.19,0.26c-0.46,0.64-0.94,1.27-1.43,1.89c-0.22,0.28-0.45,0.56-0.68,0.83
			c-0.34,0.41-0.69,0.8-1.05,1.2c-0.46,0.52-0.94,1.03-1.44,1.53c-0.32,0.33-0.64,0.65-0.97,0.97c-0.47,0.45-0.95,0.89-1.44,1.33
			c-0.35,0.32-0.7,0.63-1.07,0.94c-0.53,0.45-1.08,0.88-1.63,1.31c-0.36,0.28-0.71,0.57-1.08,0.84c-0.63,0.47-1.28,0.92-1.94,1.37
			c-0.32,0.22-0.63,0.45-0.96,0.67c-1,0.66-2.04,1.3-3.11,1.92c-0.83,0.48-1.63,0.91-2.42,1.3c-0.1,0.05-0.2,0.1-0.3,0.15
			c-0.75,0.37-1.47,0.7-2.18,1c-0.14,0.06-0.29,0.12-0.43,0.18c-0.43,0.17-0.85,0.33-1.27,0.48c-0.1,0.04-0.2,0.08-0.31,0.11
			c-0.51,0.17-1.01,0.33-1.5,0.46c-0.09,0.02-0.17,0.04-0.26,0.07c-0.71,0.19-1.4,0.34-2.07,0.44c-0.04,0.01-0.09,0.01-0.13,0.02
			c-0.49,0.07-0.97,0.12-1.44,0.14c-0.12,0.01-0.25,0.02-0.37,0.02c-0.41,0.01-0.82,0.01-1.22-0.01c-0.04,0-0.07,0-0.11,0
			c-0.4-0.03-0.8-0.07-1.18-0.14c-0.12-0.02-0.24-0.05-0.36-0.07c-0.25-0.05-0.5-0.11-0.75-0.17c-0.13-0.04-0.26-0.08-0.39-0.12
			c-0.23-0.07-0.45-0.15-0.67-0.24c-0.12-0.05-0.25-0.1-0.37-0.15c-0.25-0.11-0.49-0.23-0.73-0.36c-0.11-0.06-0.22-0.11-0.33-0.17
			l18.98,11.03c0.04,0.02,0.08,0.05,0.12,0.07c0.07,0.04,0.14,0.07,0.21,0.1c0.24,0.13,0.48,0.25,0.73,0.36
			c0.05,0.02,0.09,0.05,0.13,0.07c0.08,0.03,0.16,0.05,0.23,0.08c0.22,0.09,0.44,0.17,0.67,0.24c0.07,0.02,0.14,0.05,0.21,0.08
			c0.06,0.02,0.12,0.03,0.18,0.04c0.25,0.07,0.5,0.12,0.75,0.17c0.09,0.02,0.17,0.04,0.26,0.06c0.03,0.01,0.07,0.01,0.1,0.01
			c0.39,0.06,0.78,0.11,1.18,0.14c0.01,0,0.01,0,0.02,0c0.03,0,0.06,0,0.09,0c0.4,0.02,0.8,0.02,1.22,0.01c0.06,0,0.11,0,0.17,0
			c0.07,0,0.14-0.02,0.2-0.02c0.47-0.03,0.95-0.07,1.44-0.14c0.04-0.01,0.07,0,0.1-0.01c0.01,0,0.02,0,0.03-0.01
			c0.67-0.1,1.36-0.26,2.07-0.44c0.05-0.01,0.1-0.02,0.15-0.03c0.03-0.01,0.07-0.02,0.11-0.03c0.49-0.14,0.99-0.29,1.5-0.46
			c0.1-0.03,0.2-0.08,0.3-0.11c0.42-0.15,0.84-0.31,1.27-0.48c0.07-0.03,0.15-0.05,0.22-0.08c0.07-0.03,0.14-0.07,0.21-0.1
			c0.71-0.3,1.44-0.63,2.18-1c0.1-0.05,0.2-0.1,0.29-0.15c0.79-0.4,1.59-0.83,2.42-1.31c1.07-0.62,2.1-1.26,3.11-1.92
			c0.33-0.22,0.64-0.45,0.96-0.67c0.66-0.45,1.31-0.9,1.94-1.37c0.37-0.27,0.72-0.56,1.08-0.84c0.55-0.43,1.1-0.86,1.63-1.31
			c0.36-0.31,0.71-0.63,1.07-0.94c0.49-0.44,0.97-0.88,1.44-1.33c0.13-0.13,0.28-0.25,0.4-0.37c0.2-0.2,0.37-0.4,0.56-0.6
			c0.49-0.5,0.97-1.01,1.44-1.53c0.16-0.17,0.33-0.34,0.48-0.52c0.19-0.22,0.37-0.46,0.56-0.69c0.23-0.28,0.46-0.55,0.68-0.83
			c0.13-0.16,0.27-0.32,0.4-0.49c0.36-0.46,0.7-0.93,1.03-1.4c0.06-0.09,0.13-0.17,0.19-0.25c0.02-0.03,0.04-0.05,0.06-0.08
			c0.37-0.53,0.73-1.06,1.07-1.6c0.18-0.28,0.35-0.55,0.52-0.83c0.16-0.26,0.32-0.53,0.47-0.79c0.33-0.56,0.64-1.12,0.94-1.69
			c0.02-0.03,0.03-0.07,0.05-0.1c0.04-0.08,0.08-0.16,0.12-0.24c0.23-0.44,0.45-0.87,0.66-1.31c0.14-0.3,0.27-0.59,0.41-0.89
			c0.07-0.15,0.14-0.3,0.2-0.45c0.05-0.1,0.1-0.2,0.14-0.31c0.24-0.56,0.47-1.12,0.69-1.68c0.04-0.11,0.08-0.22,0.12-0.34
			c0.07-0.18,0.13-0.36,0.19-0.53c0.11-0.31,0.23-0.61,0.33-0.92c0.11-0.34,0.21-0.68,0.31-1.02c0.06-0.21,0.13-0.42,0.19-0.64
			c0.03-0.11,0.07-0.21,0.1-0.32c0.16-0.59,0.3-1.18,0.43-1.77c0.04-0.16,0.09-0.33,0.12-0.49c0.01-0.02,0.01-0.05,0.02-0.07
			c0.04-0.18,0.06-0.37,0.09-0.55c0.15-0.78,0.29-1.56,0.4-2.34C403.55,344.26,403.57,344.18,403.58,344.11z"/>
		<g class="st7">
			<defs>
				<path id="SVGID_1_" class="st7" d="M339.7,409.54l-18.98-11.03c-0.53-0.31-1.05-0.64-1.55-1c-7.66-5.48-11.51-16.36-11.56-32.67
					l18.98,11.03c0.05,16.31,3.9,27.19,11.56,32.67C338.65,408.9,339.17,409.23,339.7,409.54z"/>
			</defs>
			<use xlink:href="#SVGID_1_"  style="overflow:visible;fill:#248E56;"/>
			<clipPath id="SVGID_2_">
				<use xlink:href="#SVGID_1_"  style="overflow:visible;"/>
			</clipPath>
			<g class="st8">
				<path class="st0" d="M339.7,409.54l-18.98-11.03c-0.53-0.31-1.05-0.64-1.55-1c-7.66-5.48-11.51-16.36-11.56-32.67l18.98,11.03
					c0.05,16.31,3.9,27.19,11.56,32.67C338.65,408.9,339.17,409.23,339.7,409.54"/>
			</g>
		</g>
		<g>
			<polygon class="st5" points="326.59,375.87 307.61,364.84 333.73,349.76 352.71,360.79 			"/>
		</g>
		<g class="st7">
			<defs>
				<path id="SVGID_3_" class="st7" d="M376.17,228.88l18.98,11.03c0.61,0.35,1.19,0.78,1.75,1.28c4.07,3.64,6.12,10.63,6.15,21.01
					l-18.98-11.03c-0.03-10.38-2.08-17.38-6.15-21.01C377.36,229.66,376.78,229.24,376.17,228.88z"/>
			</defs>
			<clipPath id="SVGID_4_">
				<use xlink:href="#SVGID_3_"  style="overflow:visible;"/>
			</clipPath>
			<g class="st9">
				<path class="st0" d="M403.04,262.2l-18.98-11.03c-0.03-10.38-2.08-17.38-6.15-21.01c-0.56-0.5-1.14-0.92-1.75-1.28l18.98,11.03
					c0.61,0.35,1.19,0.78,1.75,1.28C400.96,244.82,403.01,251.82,403.04,262.2"/>
			</g>
		</g>
		<g class="st7">
			<defs>
				<path id="SVGID_5_" class="st7" d="M364.1,293.04l-18.98-11.03c0.07,0.04,0.14,0.08,0.21,0.12c3.85,2.11,10.35,2.45,19.54,1.02
					c9.18-1.42,16.39-2,21.64-1.73c5.09,0.27,9.41,1.44,12.95,3.5l18.98,11.03c-3.54-2.06-7.86-3.23-12.95-3.5
					c-5.24-0.27-12.46,0.31-21.64,1.73c-9.19,1.43-15.7,1.09-19.54-1.02C364.24,293.12,364.17,293.08,364.1,293.04z"/>
			</defs>
			<use xlink:href="#SVGID_5_"  style="overflow:visible;fill:#59BB8D;"/>
			<clipPath id="SVGID_6_">
				<use xlink:href="#SVGID_5_"  style="overflow:visible;"/>
			</clipPath>
			<g class="st10">
				<path class="st5" d="M364.1,293.04l-18.98-11.03c0.04,0.02,0.07,0.04,0.11,0.06l18.98,11.03
					C364.17,293.08,364.14,293.06,364.1,293.04"/>
				<path class="st5" d="M364.21,293.1l-18.98-11.03c0.03,0.02,0.07,0.04,0.1,0.06c0.34,0.18,0.69,0.36,1.07,0.51l18.98,11.03
					c-0.38-0.16-0.73-0.33-1.07-0.51C364.27,293.14,364.24,293.12,364.21,293.1"/>
				<path class="st5" d="M365.38,293.67l-18.98-11.03c0.47,0.19,0.96,0.37,1.49,0.52l18.98,11.03
					C366.34,294.04,365.84,293.87,365.38,293.67"/>
				<path class="st5" d="M366.87,294.19l-18.98-11.03c0.63,0.18,1.29,0.33,2.01,0.46l18.98,11.03
					C368.16,294.53,367.5,294.37,366.87,294.19"/>
				<path class="st5" d="M368.88,294.65l-18.98-11.03c0.88,0.15,1.83,0.26,2.84,0.32l18.98,11.03
					C370.7,294.91,369.76,294.8,368.88,294.65"/>
				<path class="st5" d="M371.71,294.98l-18.98-11.03c1.33,0.08,2.78,0.09,4.35,0.02L376.06,295
					C374.5,295.07,373.05,295.06,371.71,294.98"/>
				<path class="st5" d="M376.06,295l-18.98-11.03c2.27-0.1,4.78-0.36,7.54-0.78l18.98,11.03C380.85,294.64,378.33,294.9,376.06,295
					"/>
				<path class="st5" d="M383.6,294.22l-18.98-11.03c0.08-0.01,0.17-0.03,0.25-0.04c0.2-0.03,0.39-0.06,0.59-0.09l18.98,11.03
					c-0.2,0.03-0.39,0.06-0.59,0.09C383.77,294.19,383.69,294.21,383.6,294.22"/>
				<path class="st5" d="M384.44,294.09l-18.98-11.03c5.91-0.9,10.99-1.44,15.24-1.63l18.98,11.03
					C395.44,292.65,390.35,293.19,384.44,294.09"/>
				<path class="st5" d="M399.68,292.46l-18.98-11.03c2.15-0.09,4.08-0.1,5.81-0.01c0.15,0.01,0.3,0.02,0.45,0.03l18.98,11.03
					c-0.15-0.01-0.3-0.02-0.45-0.03C403.77,292.36,401.83,292.36,399.68,292.46"/>
				<path class="st5" d="M405.94,292.48l-18.98-11.03c1.35,0.09,2.64,0.24,3.88,0.45l18.98,11.03
					C408.58,292.71,407.29,292.56,405.94,292.48"/>
				<path class="st5" d="M409.82,292.93l-18.98-11.03c1.12,0.19,2.2,0.44,3.23,0.74l18.98,11.03
					C412.02,293.37,410.94,293.12,409.82,292.93"/>
				<path class="st5" d="M413.05,293.67l-18.98-11.03c0.95,0.28,1.87,0.6,2.75,0.97l18.98,11.03
					C414.92,294.27,414,293.95,413.05,293.67"/>
				<path class="st5" d="M415.8,294.64l-18.98-11.03c0.83,0.35,1.63,0.74,2.4,1.17l18.98,11.03
					C417.43,295.38,416.63,294.99,415.8,294.64"/>
				<path class="st5" d="M418.19,295.81l-18.98-11.03c0.08,0.05,0.17,0.1,0.25,0.14l18.98,11.03
					C418.36,295.9,418.28,295.85,418.19,295.81"/>
			</g>
		</g>
		<g class="st7">
			<defs>
				<path id="SVGID_7_" class="st7" d="M396.49,200.32l18.98,11.03c-6.53-3.8-15.1-3.51-25.71,0.85l-18.98-11.03
					C381.39,196.82,389.96,196.53,396.49,200.32z"/>
			</defs>
			<use xlink:href="#SVGID_7_"  style="overflow:visible;fill:#59BB8D;"/>
			<clipPath id="SVGID_8_">
				<use xlink:href="#SVGID_7_"  style="overflow:visible;"/>
			</clipPath>
			<g class="st11">
				<path class="st5" d="M389.76,212.21l-18.98-11.03c2.24-0.92,4.4-1.66,6.46-2.22l18.98,11.03
					C394.16,210.54,392,211.28,389.76,212.21"/>
				<path class="st5" d="M396.22,209.98l-18.98-11.03c1.48-0.4,2.92-0.71,4.31-0.92l18.98,11.03
					C399.14,209.27,397.7,209.58,396.22,209.98"/>
				<path class="st5" d="M400.53,209.06l-18.98-11.03c1.14-0.17,2.24-0.28,3.31-0.33l18.98,11.03
					C402.77,208.78,401.66,208.89,400.53,209.06"/>
				<path class="st5" d="M403.84,208.73l-18.98-11.03c0.95-0.04,1.87-0.03,2.77,0.02l18.98,11.03
					C405.71,208.7,404.79,208.69,403.84,208.73"/>
				<path class="st5" d="M406.61,208.75l-18.98-11.03c0.83,0.05,1.64,0.15,2.42,0.28l18.98,11.03
					C408.25,208.9,407.44,208.81,406.61,208.75"/>
				<path class="st5" d="M409.03,209.04l-18.98-11.03c0.75,0.13,1.48,0.3,2.2,0.51l18.98,11.03
					C410.52,209.34,409.79,209.17,409.03,209.04"/>
				<path class="st5" d="M411.23,209.54l-18.98-11.03c0.7,0.2,1.39,0.45,2.05,0.72l18.98,11.03
					C412.62,209.99,411.94,209.75,411.23,209.54"/>
				<path class="st5" d="M413.29,210.27l-18.98-11.03c0.67,0.28,1.33,0.6,1.96,0.96l18.98,11.03
					C414.61,210.87,413.96,210.55,413.29,210.27"/>
				<path class="st5" d="M415.25,211.23l-18.98-11.03c0.07,0.04,0.14,0.08,0.21,0.12l18.98,11.03
					C415.39,211.31,415.32,211.27,415.25,211.23"/>
			</g>
		</g>
		<path class="st5" d="M332.38,294.58c0-0.85,0.01-1.7,0.04-2.55c0.01-0.24,0.02-0.48,0.03-0.72c0.02-0.6,0.05-1.21,0.09-1.81
			c0.02-0.33,0.05-0.66,0.08-0.98c0.04-0.51,0.07-1.03,0.12-1.54c0.03-0.36,0.08-0.71,0.12-1.07c0.05-0.48,0.1-0.96,0.16-1.44
			c0.12-0.95,0.27-1.9,0.43-2.85c0.05-0.28,0.1-0.55,0.15-0.82c0.12-0.68,0.25-1.36,0.39-2.03c0.05-0.26,0.11-0.53,0.17-0.79
			c0.3-1.36,0.63-2.71,1-4.06c0.06-0.21,0.12-0.42,0.18-0.63c0.3-1.05,0.62-2.1,0.96-3.15c0.06-0.18,0.11-0.36,0.17-0.53
			c0.35-1.05,0.73-2.11,1.13-3.16c0.1-0.27,0.21-0.53,0.31-0.8c0.3-0.78,0.62-1.55,0.95-2.32c0.12-0.29,0.24-0.58,0.37-0.87
			c0.43-0.99,0.88-1.97,1.35-2.95c0-0.01,0.01-0.01,0.01-0.02c0.48-1,0.99-1.99,1.51-2.98c0.34-0.64,0.67-1.27,1.02-1.91
			c0.78-1.4,1.6-2.77,2.44-4.12c0.18-0.29,0.35-0.58,0.53-0.86c0.89-1.4,1.81-2.77,2.76-4.12c0.29-0.41,0.6-0.8,0.89-1.21
			c0.69-0.95,1.4-1.89,2.12-2.81c0.55-0.7,1.12-1.38,1.69-2.06c0.65-0.78,1.29-1.56,1.96-2.31c0.27-0.31,0.55-0.61,0.82-0.91
			c1.01-1.1,2.03-2.19,3.09-3.25c0.11-0.11,0.21-0.22,0.32-0.33c1.17-1.16,2.38-2.29,3.62-3.4c0.34-0.31,0.7-0.61,1.05-0.91
			c0.95-0.83,1.92-1.64,2.9-2.44c0.38-0.31,0.76-0.62,1.15-0.92c1.32-1.04,2.67-2.06,4.06-3.05l-18.98-11.03
			c-1.39,0.99-2.74,2.01-4.06,3.05c-0.39,0.3-0.76,0.61-1.15,0.92c-0.99,0.8-1.95,1.61-2.9,2.44c-0.35,0.3-0.7,0.61-1.05,0.91
			c-1.2,1.08-2.38,2.17-3.52,3.29c-0.03,0.03-0.07,0.07-0.1,0.1c-0.11,0.11-0.21,0.22-0.32,0.33c-1.06,1.06-2.08,2.14-3.09,3.24
			c-0.28,0.3-0.55,0.61-0.83,0.91c-0.24,0.27-0.48,0.52-0.72,0.79c-0.43,0.49-0.83,1.01-1.25,1.52c-0.57,0.68-1.14,1.36-1.69,2.06
			c-0.16,0.21-0.34,0.4-0.5,0.61c-0.56,0.72-1.08,1.46-1.62,2.19c-0.3,0.41-0.61,0.8-0.9,1.22c-0.07,0.1-0.15,0.2-0.22,0.3
			c-0.81,1.15-1.59,2.32-2.35,3.5c-0.06,0.1-0.12,0.21-0.19,0.31c-0.18,0.28-0.35,0.58-0.53,0.86c-0.47,0.75-0.94,1.5-1.39,2.27
			c-0.36,0.61-0.71,1.23-1.05,1.85c-0.29,0.52-0.57,1.05-0.85,1.57c-0.06,0.11-0.11,0.23-0.17,0.34c-0.52,0.99-1.03,1.98-1.51,2.98
			c0,0,0,0,0,0c0,0.01-0.01,0.02-0.01,0.03c-0.47,0.98-0.92,1.96-1.35,2.94c-0.05,0.11-0.11,0.23-0.15,0.34
			c-0.08,0.17-0.14,0.35-0.21,0.52c-0.33,0.77-0.65,1.55-0.95,2.33c-0.07,0.18-0.15,0.35-0.22,0.53c-0.03,0.09-0.06,0.18-0.1,0.26
			c-0.4,1.05-0.78,2.1-1.13,3.16c-0.02,0.05-0.04,0.11-0.06,0.16c-0.04,0.13-0.07,0.25-0.12,0.38c-0.34,1.05-0.66,2.09-0.96,3.14
			c-0.04,0.14-0.09,0.29-0.13,0.43c-0.02,0.07-0.03,0.13-0.05,0.2c-0.37,1.35-0.7,2.7-1,4.06c-0.03,0.12-0.06,0.24-0.09,0.37
			c-0.03,0.14-0.05,0.28-0.08,0.43c-0.14,0.67-0.27,1.35-0.39,2.03c-0.05,0.28-0.1,0.55-0.15,0.83c-0.16,0.95-0.3,1.89-0.43,2.84
			c0,0.02-0.01,0.04-0.01,0.06c-0.06,0.47-0.11,0.94-0.16,1.41c-0.04,0.35-0.08,0.7-0.12,1.05c-0.05,0.51-0.09,1.03-0.12,1.54
			c-0.03,0.33-0.06,0.66-0.08,0.98c-0.04,0.57-0.06,1.14-0.08,1.72c-0.01,0.27-0.03,0.54-0.04,0.82c-0.03,0.85-0.04,1.69-0.04,2.54
			c0.04,13.91,4.04,23.19,12.01,27.82l18.98,11.03C336.42,317.76,332.42,308.49,332.38,294.58z"/>
		<g>
			<polygon class="st5" points="372.48,194.96 353.5,183.93 370.71,174 389.68,185.03 			"/>
		</g>
		<g>
			<polygon class="st0" points="372.55,221.89 353.58,210.87 353.5,183.93 372.48,194.96 			"/>
		</g>
		<g>
			<path class="st1" d="M389.68,185.03l0.08,27.18c12.47-5.13,22.13-4.62,28.96,1.53s10.28,17.3,10.32,33.45l-26.01,15.02
				c-0.03-10.38-2.08-17.38-6.15-21.01c-4.07-3.64-9.57-3.44-16.53,0.57c-6.88,3.97-12.25,9.22-16.11,15.73
				c-3.86,6.52-5.78,13.77-5.76,21.76c0.02,7.16,1.95,11.8,5.81,13.91c3.85,2.11,10.35,2.45,19.54,1.02
				c9.18-1.42,16.39-2,21.64-1.73c5.23,0.28,9.65,1.51,13.25,3.68c3.6,2.17,6.37,5.45,8.32,9.86c1.95,4.4,2.94,10.3,2.96,17.72
				c0.04,13.92-3.64,27.34-11.03,40.27c-7.39,12.92-17.72,24-30.97,33.22l0.07,24.09l-17.09,9.87l-0.07-23.97
				c-14.2,6.39-25.12,6.84-32.78,1.36c-7.66-5.48-11.51-16.36-11.56-32.67l26.12-15.08c0.03,10.37,2.33,17.08,6.89,20.15
				c4.57,3.05,11.01,2.18,19.32-2.62c8.17-4.72,14.38-10.58,18.63-17.56c4.25-6.99,6.37-14.23,6.35-21.73
				c-0.02-7-1.98-11.67-5.86-14.01c-3.88-2.33-10.35-2.72-19.38-1.18c-9.04,1.55-16.07,2.21-21.1,1.98
				c-16.73-0.65-25.12-11.07-25.17-31.25c-0.04-13.67,3.55-27,10.76-39.98c7.22-13,17.02-23.89,29.41-32.7l-0.08-26.93
				L389.68,185.03z"/>
		</g>
	</g>
	<g>
		<path class="st5" d="M444.9,96.15c3.93,2.27,7.11,7.77,7.1,12.29l-0.21,73.98c-0.01,4.52-3.21,6.34-7.14,4.07l-64.38-37.17
			c-3.94-2.27-7.11-7.78-7.1-12.29l0.21-73.98c0.01-4.52,3.21-6.34,7.14-4.07L444.9,96.15z"/>
	</g>
	<g>
		<path class="st12" d="M444.9,96.15c3.93,2.27,7.11,7.77,7.1,12.29l-0.21,73.98c-0.01,4.52-3.21,6.34-7.14,4.07l-64.38-37.17
			c-3.94-2.27-7.11-7.78-7.1-12.29l0.21-73.98c0.01-4.52,3.21-6.34,7.14-4.07L444.9,96.15z"/>
	</g>
	<g>
		<polygon class="st1" points="441.38,117.61 398.32,142.15 383.13,115.83 390.12,111.95 398.37,126.23 434.47,105.66 		"/>
	</g>
</g>
</svg>
