<?xml version="1.0" encoding="utf-8"?>
<!-- Generator: Adobe Illustrator 23.0.2, SVG Export Plug-In . SVG Version: 6.00 Build 0)  -->
<svg version="1.1" xmlns="http://www.w3.org/2000/svg" xmlns:xlink="http://www.w3.org/1999/xlink" x="0px" y="0px"
	 viewBox="0 0 500 500" style="enable-background:new 0 0 500 500;" xml:space="preserve">
<style type="text/css">
	.st0{fill:#248E56;}
	.st1{fill:#F5F7FA;}
	.st2{opacity:0.3;fill:#A8B1BE;}
	.st3{fill:#B5BFC9;}
	.st4{opacity:0.43;fill:#80D5F6;}
	.st5{fill:#59BB8D;}
	.st6{fill:none;stroke:#248E56;stroke-width:3;stroke-linecap:round;stroke-linejoin:round;stroke-miterlimit:10;}
	.st7{enable-background:new    ;}
	.st8{clip-path:url(#SVGID_2_);enable-background:new    ;}
	.st9{clip-path:url(#SVGID_4_);}
	.st10{clip-path:url(#SVGID_6_);enable-background:new    ;}
	.st11{clip-path:url(#SVGID_8_);enable-background:new    ;}
	.st12{fill:none;stroke:#248E56;stroke-width:3;stroke-miterlimit:10;}
	.st13{fill:#FFFFFF;}
	.st14{fill:url(#SVGID_9_);}
</style>
<g id="Layer_2">
</g>
<g id="Layer_1">
	<g>
		<path class="st1" d="M412.08,211.03c3.84,2.22,6.95,7.6,6.94,12.02l-0.21,72.32c-0.01,4.41-3.14,6.2-6.98,3.98l-62.94-36.34
			c-3.85-2.22-6.95-7.6-6.94-12.02l0.21-72.32c0.01-4.42,3.14-6.2,6.98-3.98L412.08,211.03z"/>
	</g>
	<g>
		<path class="st12" d="M412.08,211.03c3.84,2.22,6.95,7.6,6.94,12.02l-0.21,72.32c-0.01,4.41-3.14,6.2-6.98,3.98l-62.94-36.34
			c-3.85-2.22-6.95-7.6-6.94-12.02l0.21-72.32c0.01-4.42,3.14-6.2,6.98-3.98L412.08,211.03z"/>
	</g>
	<g>
		<path class="st5" d="M207.99,107.66c-57.24,33.05-103.49,113.16-103.3,178.93c0.19,65.78,46.74,92.31,103.98,59.26
			c57.24-33.05,103.49-113.16,103.3-178.94C311.78,101.14,265.23,74.61,207.99,107.66z"/>
	</g>
	<g>
		<path class="st1" d="M208.52,127.44c-47.7,27.54-86.23,94.29-86.08,149.09c0.16,54.81,38.94,76.92,86.64,49.38
			c47.7-27.54,86.23-94.29,86.08-149.1C295.01,122.02,256.22,99.91,208.52,127.44z"/>
	</g>
	<g>
		<path class="st3" d="M140.45,326.63c15.85,14.52,40.72,15.4,68.64-0.71c47.7-27.54,86.23-94.3,86.07-149.1
			c-0.08-29.17-11.12-49.08-28.62-57.16c11.21,10.27,17.91,27.36,17.97,50.06c0.15,54.81-38.38,121.56-86.07,149.1
			C176.15,331.68,155.82,333.7,140.45,326.63z"/>
	</g>
	<path class="st0" d="M71.33,267.5c0-0.1,0-0.2,0-0.3c0-1.38,0.02-2.77,0.06-4.16c0-0.17,0-0.34,0.01-0.52
		c0-0.16,0.02-0.33,0.02-0.49c0.05-1.46,0.11-2.92,0.21-4.4c0-0.04,0-0.09,0.01-0.13c0.01-0.13,0.02-0.26,0.03-0.38
		c0.09-1.36,0.2-2.73,0.33-4.1c0.02-0.18,0.03-0.37,0.04-0.55c0.01-0.11,0.03-0.22,0.04-0.33c0.14-1.46,0.31-2.93,0.49-4.41
		c0.01-0.11,0.02-0.23,0.04-0.34c0.02-0.18,0.05-0.37,0.08-0.55c0.19-1.47,0.4-2.94,0.63-4.41c0.01-0.08,0.02-0.16,0.03-0.24
		c0-0.02,0.01-0.05,0.01-0.08c0.24-1.54,0.52-3.09,0.8-4.64c0.03-0.18,0.06-0.35,0.09-0.52c0.03-0.15,0.06-0.29,0.09-0.44
		c0.3-1.56,0.61-3.13,0.95-4.7c0.02-0.09,0.04-0.18,0.06-0.27c0.04-0.17,0.08-0.34,0.12-0.51c0.34-1.54,0.7-3.09,1.08-4.63
		c0.02-0.1,0.04-0.19,0.07-0.28c0.01-0.03,0.02-0.06,0.02-0.1c0.4-1.63,0.83-3.25,1.28-4.88c0.05-0.17,0.09-0.35,0.14-0.52
		c0.04-0.13,0.08-0.27,0.12-0.4c0.44-1.58,0.9-3.16,1.38-4.74c0.03-0.11,0.06-0.22,0.1-0.33c0.06-0.18,0.12-0.36,0.18-0.55
		c0.48-1.55,0.98-3.11,1.49-4.66c0.02-0.05,0.03-0.1,0.05-0.15c0-0.01,0.01-0.03,0.02-0.04c0.53-1.57,1.08-3.13,1.64-4.7
		c0.06-0.18,0.12-0.36,0.19-0.54c0.05-0.15,0.11-0.29,0.16-0.44c0.54-1.48,1.09-2.95,1.66-4.43c0.03-0.07,0.05-0.14,0.08-0.21
		c0.07-0.17,0.14-0.34,0.2-0.51c0.52-1.32,1.05-2.64,1.59-3.96c0.08-0.19,0.15-0.37,0.23-0.56c0.04-0.1,0.09-0.2,0.13-0.3
		c0.6-1.44,1.21-2.87,1.84-4.3c0.05-0.11,0.1-0.23,0.15-0.34c0.08-0.19,0.17-0.38,0.26-0.57c0.6-1.34,1.2-2.68,1.82-4.01
		c0.07-0.14,0.13-0.29,0.19-0.43c0.02-0.05,0.05-0.09,0.07-0.14c0.76-1.62,1.54-3.23,2.34-4.84c0.08-0.16,0.16-0.33,0.24-0.49
		c0.06-0.11,0.12-0.22,0.17-0.33c0.92-1.83,1.86-3.66,2.83-5.47c0.07-0.14,0.14-0.28,0.22-0.42c0.08-0.14,0.16-0.28,0.23-0.42
		c0.72-1.35,1.45-2.69,2.2-4.02c0.11-0.19,0.21-0.38,0.32-0.56c0.67-1.18,1.35-2.36,2.03-3.54c0.11-0.19,0.21-0.38,0.32-0.56
		c0.06-0.11,0.13-0.21,0.19-0.32c1.09-1.84,2.2-3.67,3.33-5.48c0.14-0.22,0.27-0.44,0.41-0.66c1.15-1.83,2.32-3.63,3.51-5.43
		c0.08-0.12,0.15-0.24,0.23-0.36c0.06-0.09,0.13-0.18,0.19-0.27c0.92-1.38,1.86-2.74,2.81-4.1c0.19-0.28,0.39-0.55,0.58-0.83
		c0.98-1.39,1.98-2.78,2.98-4.15c0,0,0,0,0,0c0,0,0,0,0-0.01c1.47-1.99,2.96-3.95,4.48-5.89c0.04-0.05,0.08-0.1,0.12-0.15
		c0.09-0.11,0.18-0.23,0.28-0.34c1.22-1.54,2.45-3.06,3.69-4.57c0.01-0.01,0.02-0.02,0.03-0.03c0.03-0.03,0.06-0.07,0.09-0.1
		c1.2-1.44,2.42-2.86,3.64-4.26c0.09-0.11,0.18-0.21,0.27-0.32c0.04-0.05,0.09-0.09,0.13-0.14c1.17-1.33,2.36-2.64,3.55-3.94
		c0.12-0.13,0.23-0.26,0.35-0.39c0.09-0.1,0.19-0.19,0.28-0.29c1.21-1.3,2.44-2.59,3.68-3.85c0.1-0.1,0.19-0.2,0.29-0.3
		c0.12-0.12,0.23-0.23,0.35-0.34c1.27-1.28,2.54-2.55,3.83-3.79c0.06-0.06,0.13-0.13,0.19-0.19c0.11-0.11,0.22-0.2,0.33-0.31
		c1.36-1.3,2.74-2.59,4.13-3.84c0.03-0.03,0.06-0.06,0.09-0.09c0.08-0.07,0.15-0.13,0.23-0.2c1.42-1.28,2.85-2.53,4.3-3.75
		c0.03-0.02,0.05-0.05,0.08-0.07c0.01-0.01,0.02-0.01,0.03-0.02c1.41-1.19,2.82-2.34,4.25-3.47c0.11-0.09,0.22-0.18,0.33-0.27
		c0.06-0.05,0.12-0.09,0.17-0.13c1.32-1.04,2.65-2.05,3.99-3.04c0.13-0.1,0.26-0.2,0.39-0.29c0.11-0.08,0.23-0.16,0.34-0.24
		c1.3-0.95,2.6-1.88,3.91-2.78c0.09-0.06,0.17-0.13,0.26-0.18c0.14-0.1,0.29-0.19,0.43-0.29c1.28-0.87,2.57-1.73,3.87-2.56
		c0.03-0.02,0.07-0.04,0.1-0.07c0.01-0.01,0.02-0.01,0.03-0.02c1.3-0.82,2.6-1.62,3.91-2.39c0.15-0.09,0.3-0.19,0.45-0.28
		c0.34-0.2,0.68-0.4,1.02-0.59c1.01-0.59,2.02-1.15,3.03-1.7c0.09-0.05,0.18-0.1,0.26-0.15c0.15-0.08,0.3-0.15,0.45-0.23
		c1.13-0.61,2.26-1.19,3.38-1.75c0.14-0.07,0.28-0.15,0.41-0.21c0.06-0.03,0.12-0.05,0.18-0.08c1.23-0.6,2.45-1.18,3.66-1.72
		c0.12-0.05,0.24-0.12,0.36-0.17c0.15-0.07,0.3-0.12,0.45-0.19c1.24-0.55,2.47-1.08,3.69-1.57c0,0,0,0,0,0c0,0,0,0,0,0
		c1.26-0.5,2.5-0.97,3.74-1.41c0.15-0.05,0.29-0.11,0.44-0.17c0.11-0.04,0.21-0.07,0.32-0.1c1.21-0.42,2.41-0.81,3.6-1.18
		c0.08-0.02,0.15-0.05,0.23-0.08c0.13-0.04,0.26-0.07,0.39-0.11c1.28-0.38,2.55-0.74,3.81-1.05c0.03-0.01,0.05-0.02,0.08-0.02
		c0.01,0,0.01,0,0.02,0c1.29-0.32,2.57-0.6,3.84-0.85c0.13-0.03,0.26-0.06,0.38-0.09c0.12-0.02,0.25-0.04,0.37-0.07
		c0.35-0.07,0.7-0.13,1.05-0.19c0.43-0.08,0.87-0.15,1.3-0.22c0.35-0.06,0.7-0.11,1.05-0.16c0.26-0.04,0.51-0.08,0.77-0.11
		c0.17-0.02,0.33-0.04,0.49-0.06c0.38-0.05,0.75-0.09,1.13-0.13c0.4-0.05,0.81-0.09,1.21-0.13c0.37-0.04,0.74-0.07,1.11-0.1
		c0.22-0.02,0.44-0.04,0.66-0.06c0.16-0.01,0.33-0.01,0.49-0.03c0.43-0.03,0.87-0.05,1.3-0.07c0.36-0.02,0.72-0.03,1.08-0.04
		c0.43-0.01,0.86-0.02,1.29-0.02c0.23,0,0.47-0.01,0.7-0.01c0.11,0,0.21,0.01,0.31,0.01c0.63,0.01,1.26,0.02,1.89,0.05
		c0.21,0.01,0.42,0.01,0.62,0.02c0.83,0.04,1.64,0.1,2.46,0.17c0.03,0,0.06,0,0.1,0.01c0.11,0.01,0.21,0.03,0.32,0.04
		c0.78,0.08,1.55,0.17,2.32,0.27c0.25,0.04,0.51,0.07,0.76,0.11c0.76,0.12,1.51,0.24,2.26,0.39c0.1,0.02,0.21,0.03,0.32,0.05
		c0.02,0,0.05,0.01,0.07,0.02c1.12,0.23,2.22,0.49,3.3,0.78c0.17,0.04,0.33,0.09,0.5,0.13c1.05,0.29,2.08,0.62,3.1,0.97
		c0.09,0.03,0.18,0.05,0.27,0.09c0.15,0.05,0.29,0.11,0.44,0.17c0.41,0.15,0.82,0.31,1.23,0.47c0.28,0.11,0.56,0.22,0.83,0.34
		c0.42,0.17,0.83,0.35,1.24,0.54c0.26,0.12,0.52,0.23,0.78,0.35c0.45,0.21,0.89,0.43,1.33,0.65c0.21,0.11,0.43,0.21,0.64,0.32
		c0.65,0.34,1.28,0.69,1.91,1.05l33.35,19.38c-0.63-0.37-1.27-0.72-1.91-1.05c-0.21-0.11-0.43-0.21-0.64-0.32
		c-0.44-0.22-0.88-0.44-1.33-0.65c-0.26-0.12-0.52-0.23-0.78-0.35c-0.41-0.18-0.82-0.36-1.24-0.54c-0.28-0.11-0.56-0.23-0.83-0.34
		c-0.41-0.16-0.82-0.32-1.23-0.47c-0.23-0.09-0.47-0.17-0.71-0.25c-1.02-0.35-2.05-0.68-3.1-0.97c-0.17-0.05-0.33-0.09-0.5-0.13
		c-1.09-0.29-2.18-0.56-3.3-0.78c-0.13-0.03-0.26-0.05-0.39-0.07c-0.75-0.15-1.5-0.27-2.26-0.39c-0.25-0.04-0.51-0.08-0.76-0.11
		c-0.77-0.11-1.54-0.2-2.32-0.27c-0.14-0.01-0.28-0.03-0.42-0.04c-0.81-0.07-1.63-0.13-2.46-0.17c-0.21-0.01-0.42-0.01-0.62-0.02
		c-0.63-0.02-1.25-0.04-1.89-0.05c-0.34,0-0.68,0-1.02,0c-0.43,0-0.86,0.01-1.29,0.02c-0.36,0.01-0.72,0.02-1.08,0.04
		c-0.43,0.02-0.86,0.04-1.3,0.07c-0.38,0.02-0.77,0.05-1.16,0.08c-0.37,0.03-0.74,0.06-1.11,0.1c-0.4,0.04-0.81,0.08-1.21,0.13
		c-0.38,0.04-0.75,0.09-1.13,0.13c-0.42,0.05-0.84,0.11-1.26,0.17c-0.35,0.05-0.7,0.1-1.05,0.16c-0.43,0.07-0.87,0.14-1.3,0.22
		c-0.35,0.06-0.7,0.12-1.05,0.19c-0.25,0.05-0.5,0.1-0.75,0.15c-1.27,0.25-2.55,0.53-3.84,0.85c-0.03,0.01-0.07,0.02-0.1,0.03
		c-1.26,0.32-2.53,0.67-3.81,1.05c-0.21,0.06-0.41,0.12-0.62,0.18c-1.19,0.36-2.39,0.76-3.6,1.18c-0.25,0.09-0.5,0.18-0.76,0.27
		c-1.24,0.44-2.49,0.91-3.74,1.41c0,0,0,0,0,0c-1.22,0.49-2.46,1.02-3.69,1.57c-0.27,0.12-0.54,0.24-0.81,0.36
		c-1.21,0.55-2.43,1.12-3.66,1.72c-0.2,0.1-0.4,0.2-0.59,0.3c-1.12,0.56-2.25,1.14-3.38,1.75c-0.24,0.13-0.48,0.25-0.72,0.38
		c-1.01,0.55-2.02,1.11-3.03,1.7c-0.49,0.28-0.98,0.58-1.47,0.87c-1.31,0.78-2.61,1.57-3.91,2.39c-0.04,0.03-0.08,0.06-0.13,0.08
		c-1.3,0.83-2.59,1.68-3.87,2.56c-0.23,0.16-0.46,0.31-0.69,0.47c-1.31,0.9-2.61,1.83-3.91,2.78c-0.24,0.18-0.48,0.36-0.72,0.54
		c-1.34,0.99-2.67,2-3.99,3.04c-0.17,0.13-0.34,0.27-0.51,0.41c-1.43,1.13-2.85,2.29-4.25,3.47c-0.04,0.03-0.07,0.06-0.11,0.09
		c-1.44,1.22-2.88,2.47-4.3,3.75c-0.11,0.1-0.22,0.19-0.33,0.29c-1.39,1.25-2.76,2.54-4.13,3.84c-0.17,0.17-0.35,0.33-0.52,0.5
		c-1.29,1.24-2.57,2.5-3.83,3.79c-0.21,0.21-0.42,0.43-0.64,0.65c-1.24,1.26-2.46,2.55-3.68,3.85c-0.21,0.23-0.42,0.45-0.63,0.68
		c-1.2,1.3-2.38,2.61-3.55,3.94c-0.13,0.15-0.27,0.31-0.4,0.46c-1.23,1.4-2.44,2.82-3.64,4.26c-0.04,0.05-0.08,0.09-0.11,0.14
		c-1.25,1.5-2.48,3.03-3.69,4.57c-0.13,0.17-0.26,0.33-0.39,0.49c-1.52,1.93-3.02,3.9-4.48,5.89c0,0,0,0.01-0.01,0.01
		c-1.01,1.37-2,2.76-2.98,4.15c-0.19,0.28-0.39,0.55-0.58,0.83c-0.95,1.35-1.88,2.72-2.81,4.1c-0.14,0.21-0.28,0.42-0.42,0.64
		c-1.19,1.79-2.37,3.6-3.51,5.43c-0.14,0.22-0.27,0.44-0.41,0.66c-1.13,1.81-2.24,3.64-3.33,5.48c-0.17,0.29-0.35,0.59-0.52,0.88
		c-0.69,1.17-1.36,2.35-2.03,3.54c-0.11,0.19-0.21,0.37-0.32,0.56c-0.75,1.33-1.48,2.67-2.2,4.02c-0.15,0.28-0.3,0.56-0.45,0.84
		c-0.96,1.81-1.91,3.64-2.83,5.47c-0.14,0.27-0.27,0.55-0.41,0.82c-0.8,1.61-1.58,3.22-2.34,4.84c-0.09,0.19-0.17,0.38-0.26,0.57
		c-0.62,1.33-1.23,2.67-1.82,4.01c-0.14,0.3-0.27,0.61-0.41,0.91c-0.63,1.43-1.24,2.86-1.84,4.3c-0.12,0.29-0.23,0.57-0.35,0.86
		c-0.54,1.32-1.08,2.64-1.59,3.96c-0.09,0.24-0.19,0.48-0.28,0.72c-0.57,1.47-1.12,2.95-1.66,4.43c-0.12,0.33-0.24,0.65-0.35,0.98
		c-0.56,1.56-1.11,3.13-1.64,4.7c-0.02,0.07-0.04,0.13-0.06,0.2c-0.52,1.55-1.01,3.11-1.49,4.66c-0.09,0.29-0.18,0.58-0.27,0.88
		c-0.48,1.58-0.94,3.16-1.38,4.74c-0.09,0.31-0.17,0.62-0.25,0.92c-0.45,1.63-0.88,3.25-1.28,4.88c-0.03,0.13-0.06,0.25-0.09,0.38
		c-0.38,1.54-0.74,3.09-1.08,4.63c-0.06,0.26-0.12,0.52-0.17,0.79c-0.34,1.57-0.66,3.13-0.95,4.7c-0.06,0.32-0.12,0.64-0.18,0.97
		c-0.29,1.55-0.56,3.09-0.8,4.64c-0.02,0.11-0.03,0.22-0.05,0.33c-0.23,1.47-0.44,2.94-0.63,4.4c-0.04,0.3-0.08,0.59-0.12,0.89
		c-0.18,1.47-0.35,2.94-0.49,4.41c-0.03,0.29-0.05,0.59-0.08,0.88c-0.13,1.37-0.24,2.74-0.33,4.1c-0.01,0.17-0.03,0.34-0.04,0.51
		c-0.09,1.47-0.16,2.94-0.21,4.4c-0.01,0.34-0.02,0.67-0.03,1c-0.04,1.39-0.06,2.78-0.06,4.16c0,0.2,0.01,0.41,0.01,0.61
		c0.01,1.43,0.05,2.83,0.1,4.22c0.01,0.24,0.02,0.48,0.03,0.72c0.06,1.44,0.15,2.85,0.26,4.25c0.02,0.27,0.04,0.55,0.07,0.82
		c0.13,1.48,0.27,2.94,0.45,4.37c0.02,0.19,0.05,0.38,0.08,0.57c0.2,1.54,0.42,3.06,0.68,4.55c0.01,0.05,0.02,0.1,0.03,0.15
		c0.3,1.69,0.63,3.34,1,4.96c0,0,0,0.01,0,0.01c0.2,0.88,0.41,1.74,0.63,2.59c0.07,0.28,0.15,0.56,0.23,0.84
		c0.15,0.57,0.31,1.13,0.47,1.69c0.08,0.27,0.16,0.54,0.25,0.81c0.18,0.61,0.37,1.21,0.56,1.8c0.1,0.32,0.21,0.63,0.32,0.95
		c0.18,0.53,0.37,1.07,0.56,1.59c0.11,0.3,0.22,0.6,0.33,0.89c0.28,0.73,0.56,1.44,0.85,2.15c0.08,0.19,0.15,0.39,0.24,0.57
		c0.37,0.87,0.76,1.73,1.15,2.58c0.07,0.15,0.15,0.3,0.22,0.45c0.55,1.15,1.13,2.28,1.73,3.38c0,0,0,0,0,0
		c0.6,1.09,1.24,2.15,1.89,3.18c0.08,0.13,0.16,0.26,0.24,0.39c0.53,0.82,1.07,1.62,1.62,2.4c0.13,0.18,0.26,0.35,0.38,0.53
		c0.5,0.69,1.01,1.36,1.53,2.01c0.09,0.12,0.18,0.24,0.28,0.35c0.59,0.73,1.21,1.44,1.83,2.13c0.15,0.16,0.3,0.32,0.44,0.48
		c0.57,0.62,1.16,1.23,1.76,1.82c0.08,0.08,0.16,0.16,0.24,0.24c0.66,0.64,1.34,1.26,2.03,1.86c0.17,0.15,0.33,0.29,0.5,0.43
		c0.66,0.56,1.33,1.11,2.01,1.63c0.05,0.04,0.1,0.08,0.15,0.12c0.73,0.55,1.47,1.08,2.22,1.58c0.18,0.12,0.37,0.25,0.55,0.37
		c0.76,0.5,1.53,0.99,2.32,1.45l-33.35-19.38c-0.79-0.46-1.56-0.95-2.32-1.45c-0.18-0.12-0.37-0.24-0.55-0.37
		c-0.75-0.51-1.49-1.03-2.22-1.58c-0.05-0.04-0.1-0.08-0.15-0.12c-0.68-0.52-1.35-1.07-2.01-1.63c-0.17-0.14-0.33-0.28-0.5-0.43
		c-0.69-0.6-1.37-1.22-2.03-1.86c-0.08-0.08-0.16-0.16-0.24-0.24c-0.6-0.59-1.18-1.2-1.76-1.82c-0.15-0.16-0.3-0.32-0.44-0.48
		c-0.62-0.69-1.23-1.4-1.83-2.13c-0.09-0.11-0.18-0.23-0.28-0.35c-0.52-0.65-1.03-1.33-1.53-2.01c-0.13-0.18-0.26-0.35-0.38-0.53
		c-0.56-0.78-1.1-1.58-1.62-2.4c-0.03-0.05-0.06-0.09-0.09-0.14c-0.05-0.08-0.1-0.17-0.15-0.25c-0.65-1.03-1.28-2.09-1.89-3.18
		c0,0,0,0,0,0c-0.6-1.09-1.18-2.22-1.73-3.38c-0.04-0.09-0.1-0.18-0.14-0.27c-0.03-0.06-0.05-0.12-0.08-0.17
		c-0.4-0.84-0.78-1.7-1.15-2.58c-0.08-0.19-0.16-0.38-0.24-0.57c-0.29-0.71-0.58-1.42-0.85-2.15c-0.05-0.14-0.11-0.28-0.17-0.42
		c-0.06-0.16-0.11-0.32-0.17-0.48c-0.19-0.52-0.38-1.05-0.56-1.59c-0.11-0.32-0.22-0.63-0.32-0.95c-0.19-0.59-0.38-1.2-0.56-1.8
		c-0.06-0.21-0.14-0.42-0.2-0.64c-0.02-0.06-0.03-0.11-0.05-0.17c-0.16-0.56-0.32-1.12-0.47-1.69c-0.08-0.28-0.16-0.56-0.23-0.84
		c-0.22-0.85-0.43-1.72-0.63-2.59c0,0,0,0,0,0c0,0,0,0,0-0.01c-0.37-1.62-0.7-3.27-1-4.96c-0.01-0.04-0.01-0.07-0.02-0.1
		c0-0.01,0-0.03-0.01-0.04c-0.26-1.49-0.48-3.01-0.68-4.55c-0.02-0.12-0.04-0.24-0.05-0.36c-0.01-0.07-0.01-0.14-0.02-0.2
		c-0.18-1.43-0.33-2.89-0.45-4.37c-0.01-0.14-0.03-0.28-0.04-0.42c-0.01-0.13-0.01-0.27-0.02-0.4c-0.11-1.4-0.2-2.81-0.26-4.25
		c0-0.08-0.01-0.16-0.02-0.24c-0.01-0.16-0.01-0.32-0.01-0.48c-0.05-1.39-0.09-2.8-0.1-4.22C71.34,267.71,71.33,267.61,71.33,267.5z
		"/>
	<g>
		<path class="st12" d="M207.64,107.66c-57.24,33.05-103.49,113.16-103.3,178.93c0.19,65.78,46.74,92.31,103.98,59.26
			c57.24-33.05,103.49-113.16,103.3-178.94C311.43,101.14,264.88,74.61,207.64,107.66z"/>
	</g>
	<path class="st12" d="M70.99,267.5c0-0.1,0-0.2,0-0.3c0-1.38,0.02-2.77,0.06-4.16c0-0.17,0-0.34,0.01-0.52
		c0-0.16,0.02-0.33,0.02-0.49c0.05-1.46,0.11-2.92,0.21-4.4c0-0.04,0-0.09,0.01-0.13c0.01-0.13,0.02-0.26,0.03-0.38
		c0.09-1.36,0.2-2.73,0.33-4.1c0.02-0.18,0.03-0.37,0.04-0.55c0.01-0.11,0.03-0.22,0.04-0.33c0.14-1.46,0.31-2.93,0.49-4.41
		c0.01-0.11,0.02-0.23,0.04-0.34c0.02-0.18,0.05-0.37,0.08-0.55c0.19-1.47,0.4-2.94,0.63-4.41c0.01-0.08,0.02-0.16,0.03-0.24
		c0-0.02,0.01-0.05,0.01-0.08c0.24-1.54,0.52-3.09,0.8-4.64c0.03-0.18,0.06-0.35,0.09-0.52c0.03-0.15,0.06-0.29,0.09-0.44
		c0.3-1.56,0.61-3.13,0.95-4.7c0.02-0.09,0.04-0.18,0.06-0.27c0.04-0.17,0.08-0.34,0.12-0.51c0.34-1.54,0.7-3.09,1.08-4.63
		c0.02-0.1,0.04-0.19,0.07-0.28c0.01-0.03,0.02-0.06,0.02-0.1c0.4-1.63,0.83-3.25,1.28-4.88c0.05-0.17,0.09-0.35,0.14-0.52
		c0.04-0.13,0.08-0.27,0.12-0.4c0.44-1.58,0.9-3.16,1.38-4.74c0.03-0.11,0.06-0.22,0.1-0.33c0.06-0.18,0.12-0.36,0.18-0.55
		c0.48-1.55,0.98-3.11,1.49-4.66c0.02-0.05,0.03-0.1,0.05-0.15c0-0.01,0.01-0.03,0.02-0.04c0.53-1.57,1.08-3.13,1.64-4.7
		c0.06-0.18,0.12-0.36,0.19-0.54c0.05-0.15,0.11-0.29,0.16-0.44c0.54-1.48,1.09-2.95,1.66-4.43c0.03-0.07,0.05-0.14,0.08-0.21
		c0.07-0.17,0.14-0.34,0.2-0.51c0.52-1.32,1.05-2.64,1.59-3.96c0.08-0.19,0.15-0.37,0.23-0.56c0.04-0.1,0.09-0.2,0.13-0.3
		c0.6-1.44,1.21-2.87,1.84-4.3c0.05-0.11,0.1-0.23,0.15-0.34c0.08-0.19,0.17-0.38,0.26-0.57c0.6-1.34,1.2-2.68,1.82-4.01
		c0.07-0.14,0.13-0.29,0.19-0.43c0.02-0.05,0.05-0.09,0.07-0.14c0.76-1.62,1.54-3.23,2.34-4.84c0.08-0.16,0.16-0.33,0.24-0.49
		c0.06-0.11,0.12-0.22,0.17-0.33c0.92-1.83,1.86-3.66,2.83-5.47c0.07-0.14,0.14-0.28,0.22-0.42c0.08-0.14,0.16-0.28,0.23-0.42
		c0.72-1.35,1.45-2.69,2.2-4.02c0.11-0.19,0.21-0.38,0.32-0.56c0.67-1.18,1.35-2.36,2.03-3.54c0.11-0.19,0.21-0.38,0.32-0.56
		c0.06-0.11,0.13-0.21,0.19-0.32c1.09-1.84,2.2-3.67,3.33-5.48c0.14-0.22,0.27-0.44,0.41-0.66c1.15-1.83,2.32-3.63,3.51-5.43
		c0.08-0.12,0.15-0.24,0.23-0.36c0.06-0.09,0.13-0.18,0.19-0.27c0.92-1.38,1.86-2.74,2.81-4.1c0.19-0.28,0.39-0.55,0.58-0.83
		c0.98-1.39,1.98-2.78,2.98-4.15c0,0,0,0,0,0c0,0,0,0,0-0.01c1.47-1.99,2.96-3.95,4.48-5.89c0.04-0.05,0.08-0.1,0.12-0.15
		c0.09-0.11,0.18-0.23,0.28-0.34c1.22-1.54,2.45-3.06,3.69-4.57c0.01-0.01,0.02-0.02,0.03-0.03c0.03-0.03,0.06-0.07,0.09-0.1
		c1.2-1.44,2.42-2.86,3.64-4.26c0.09-0.11,0.18-0.21,0.27-0.32c0.04-0.05,0.09-0.09,0.13-0.14c1.17-1.33,2.36-2.64,3.55-3.94
		c0.12-0.13,0.23-0.26,0.35-0.39c0.09-0.1,0.19-0.19,0.28-0.29c1.21-1.3,2.44-2.59,3.68-3.85c0.1-0.1,0.19-0.2,0.29-0.3
		c0.12-0.12,0.23-0.23,0.35-0.34c1.27-1.28,2.54-2.55,3.83-3.79c0.06-0.06,0.13-0.13,0.19-0.19c0.11-0.11,0.22-0.2,0.33-0.31
		c1.36-1.3,2.74-2.59,4.13-3.84c0.03-0.03,0.06-0.06,0.09-0.09c0.08-0.07,0.15-0.13,0.23-0.2c1.42-1.28,2.85-2.53,4.3-3.75
		c0.03-0.02,0.05-0.05,0.08-0.07c0.01-0.01,0.02-0.01,0.03-0.02c1.41-1.19,2.82-2.34,4.25-3.47c0.11-0.09,0.22-0.18,0.33-0.27
		c0.06-0.05,0.12-0.09,0.17-0.13c1.32-1.04,2.65-2.05,3.99-3.04c0.13-0.1,0.26-0.2,0.39-0.29c0.11-0.08,0.23-0.16,0.34-0.24
		c1.3-0.95,2.6-1.88,3.91-2.78c0.09-0.06,0.17-0.13,0.26-0.18c0.14-0.1,0.29-0.19,0.43-0.29c1.28-0.87,2.57-1.73,3.87-2.56
		c0.03-0.02,0.07-0.04,0.1-0.07c0.01-0.01,0.02-0.01,0.03-0.02c1.3-0.82,2.6-1.62,3.91-2.39c0.15-0.09,0.3-0.19,0.45-0.28
		c0.34-0.2,0.68-0.4,1.02-0.59c1.01-0.59,2.02-1.15,3.03-1.7c0.09-0.05,0.18-0.1,0.26-0.15c0.15-0.08,0.3-0.15,0.45-0.23
		c1.13-0.61,2.26-1.19,3.38-1.75c0.14-0.07,0.28-0.15,0.41-0.21c0.06-0.03,0.12-0.05,0.18-0.08c1.23-0.6,2.45-1.18,3.66-1.72
		c0.12-0.05,0.24-0.12,0.36-0.17c0.15-0.07,0.3-0.12,0.45-0.19c1.24-0.55,2.47-1.08,3.69-1.57c0,0,0,0,0,0c0,0,0,0,0,0
		c1.26-0.5,2.5-0.97,3.74-1.41c0.15-0.05,0.29-0.11,0.44-0.17c0.11-0.04,0.21-0.07,0.32-0.1c1.21-0.42,2.41-0.81,3.6-1.18
		c0.08-0.02,0.15-0.05,0.23-0.08c0.13-0.04,0.26-0.07,0.39-0.11c1.28-0.38,2.55-0.74,3.81-1.05c0.03-0.01,0.05-0.02,0.08-0.02
		c0.01,0,0.01,0,0.02,0c1.29-0.32,2.57-0.6,3.84-0.85c0.13-0.03,0.26-0.06,0.38-0.09c0.12-0.02,0.25-0.04,0.37-0.07
		c0.35-0.07,0.7-0.13,1.05-0.19c0.43-0.08,0.87-0.15,1.3-0.22c0.35-0.06,0.7-0.11,1.05-0.16c0.26-0.04,0.51-0.08,0.77-0.11
		c0.17-0.02,0.33-0.04,0.49-0.06c0.38-0.05,0.75-0.09,1.13-0.13c0.4-0.05,0.81-0.09,1.21-0.13c0.37-0.04,0.74-0.07,1.11-0.1
		c0.22-0.02,0.44-0.04,0.66-0.06c0.16-0.01,0.33-0.01,0.49-0.03c0.43-0.03,0.87-0.05,1.3-0.07c0.36-0.02,0.72-0.03,1.08-0.04
		c0.43-0.01,0.86-0.02,1.29-0.02c0.23,0,0.47-0.01,0.7-0.01c0.11,0,0.21,0.01,0.31,0.01c0.63,0.01,1.26,0.02,1.89,0.05
		c0.21,0.01,0.42,0.01,0.62,0.02c0.83,0.04,1.64,0.1,2.46,0.17c0.03,0,0.06,0,0.1,0.01c0.11,0.01,0.21,0.03,0.32,0.04
		c0.78,0.08,1.55,0.17,2.32,0.27c0.25,0.04,0.51,0.07,0.76,0.11c0.76,0.12,1.51,0.24,2.26,0.39c0.1,0.02,0.21,0.03,0.32,0.05
		c0.02,0,0.05,0.01,0.07,0.02c1.12,0.23,2.22,0.49,3.3,0.78c0.17,0.04,0.33,0.09,0.5,0.13c1.05,0.29,2.08,0.62,3.1,0.97
		c0.09,0.03,0.18,0.05,0.27,0.09c0.15,0.05,0.29,0.11,0.44,0.17c0.41,0.15,0.82,0.31,1.23,0.47c0.28,0.11,0.56,0.22,0.83,0.34
		c0.42,0.17,0.83,0.35,1.24,0.54c0.26,0.12,0.52,0.23,0.78,0.35c0.45,0.21,0.89,0.43,1.33,0.65c0.21,0.11,0.43,0.21,0.64,0.32
		c0.65,0.34,1.28,0.69,1.91,1.05l33.35,19.38c-0.63-0.37-1.27-0.72-1.91-1.05c-0.21-0.11-0.43-0.21-0.64-0.32
		c-0.44-0.22-0.88-0.44-1.33-0.65c-0.26-0.12-0.52-0.23-0.78-0.35c-0.41-0.18-0.82-0.36-1.24-0.54c-0.28-0.11-0.56-0.23-0.83-0.34
		c-0.41-0.16-0.82-0.32-1.23-0.47c-0.23-0.09-0.47-0.17-0.71-0.25c-1.02-0.35-2.05-0.68-3.1-0.97c-0.17-0.05-0.33-0.09-0.5-0.13
		c-1.09-0.29-2.18-0.56-3.3-0.78c-0.13-0.03-0.26-0.05-0.39-0.07c-0.75-0.15-1.5-0.27-2.26-0.39c-0.25-0.04-0.51-0.08-0.76-0.11
		c-0.77-0.11-1.54-0.2-2.32-0.27c-0.14-0.01-0.28-0.03-0.42-0.04c-0.81-0.07-1.63-0.13-2.46-0.17c-0.21-0.01-0.42-0.01-0.62-0.02
		c-0.63-0.02-1.25-0.04-1.89-0.05c-0.34,0-0.68,0-1.02,0c-0.43,0-0.86,0.01-1.29,0.02c-0.36,0.01-0.72,0.02-1.08,0.04
		c-0.43,0.02-0.86,0.04-1.3,0.07c-0.38,0.02-0.77,0.05-1.16,0.08c-0.37,0.03-0.74,0.06-1.11,0.1c-0.4,0.04-0.81,0.08-1.21,0.13
		c-0.38,0.04-0.75,0.09-1.13,0.13c-0.42,0.05-0.84,0.11-1.26,0.17c-0.35,0.05-0.7,0.1-1.05,0.16c-0.43,0.07-0.87,0.14-1.3,0.22
		c-0.35,0.06-0.7,0.12-1.05,0.19c-0.25,0.05-0.5,0.1-0.75,0.15c-1.27,0.25-2.55,0.53-3.84,0.85c-0.03,0.01-0.07,0.02-0.1,0.03
		c-1.26,0.32-2.53,0.67-3.81,1.05c-0.21,0.06-0.41,0.12-0.62,0.18c-1.19,0.36-2.39,0.76-3.6,1.18c-0.25,0.09-0.5,0.18-0.76,0.27
		c-1.24,0.44-2.49,0.91-3.74,1.41c0,0,0,0,0,0c-1.22,0.49-2.46,1.02-3.69,1.57c-0.27,0.12-0.54,0.24-0.81,0.36
		c-1.21,0.55-2.43,1.12-3.66,1.72c-0.2,0.1-0.4,0.2-0.59,0.3c-1.12,0.56-2.25,1.14-3.38,1.75c-0.24,0.13-0.48,0.25-0.72,0.38
		c-1.01,0.55-2.02,1.11-3.03,1.7c-0.49,0.28-0.98,0.58-1.47,0.87c-1.31,0.78-2.61,1.57-3.91,2.39c-0.04,0.03-0.08,0.06-0.13,0.08
		c-1.3,0.83-2.59,1.68-3.87,2.56c-0.23,0.16-0.46,0.31-0.69,0.47c-1.31,0.9-2.61,1.83-3.91,2.78c-0.24,0.18-0.48,0.36-0.72,0.54
		c-1.34,0.99-2.67,2-3.99,3.04c-0.17,0.13-0.34,0.27-0.51,0.41c-1.43,1.13-2.85,2.29-4.25,3.47c-0.04,0.03-0.07,0.06-0.11,0.09
		c-1.44,1.22-2.88,2.47-4.3,3.75c-0.11,0.1-0.22,0.19-0.33,0.29c-1.39,1.25-2.76,2.54-4.13,3.84c-0.17,0.17-0.35,0.33-0.52,0.5
		c-1.29,1.24-2.57,2.5-3.83,3.79c-0.21,0.21-0.42,0.43-0.64,0.65c-1.24,1.26-2.46,2.55-3.68,3.85c-0.21,0.23-0.42,0.45-0.63,0.68
		c-1.2,1.3-2.38,2.61-3.55,3.94c-0.13,0.15-0.27,0.31-0.4,0.46c-1.23,1.4-2.44,2.82-3.64,4.26c-0.04,0.05-0.08,0.09-0.11,0.14
		c-1.25,1.5-2.48,3.03-3.69,4.57c-0.13,0.17-0.26,0.33-0.39,0.49c-1.52,1.93-3.02,3.9-4.48,5.89c0,0,0,0.01-0.01,0.01
		c-1.01,1.37-2,2.76-2.98,4.15c-0.19,0.28-0.39,0.55-0.58,0.83c-0.95,1.35-1.88,2.72-2.81,4.1c-0.14,0.21-0.28,0.42-0.42,0.64
		c-1.19,1.79-2.37,3.6-3.51,5.43c-0.14,0.22-0.27,0.44-0.41,0.66c-1.13,1.81-2.24,3.64-3.33,5.48c-0.17,0.29-0.35,0.59-0.52,0.88
		c-0.69,1.17-1.36,2.35-2.03,3.54c-0.11,0.19-0.21,0.37-0.32,0.56c-0.75,1.33-1.48,2.67-2.2,4.02c-0.15,0.28-0.3,0.56-0.45,0.84
		c-0.96,1.81-1.91,3.64-2.83,5.47c-0.14,0.27-0.27,0.55-0.41,0.82c-0.8,1.61-1.58,3.22-2.34,4.84c-0.09,0.19-0.17,0.38-0.26,0.57
		c-0.62,1.33-1.23,2.67-1.82,4.01c-0.14,0.3-0.27,0.61-0.41,0.91c-0.63,1.43-1.24,2.86-1.84,4.3c-0.12,0.29-0.23,0.57-0.35,0.86
		c-0.54,1.32-1.08,2.64-1.59,3.96c-0.09,0.24-0.19,0.48-0.28,0.72c-0.57,1.47-1.12,2.95-1.66,4.43c-0.12,0.33-0.24,0.65-0.35,0.98
		c-0.56,1.56-1.11,3.13-1.64,4.7c-0.02,0.07-0.04,0.13-0.06,0.2c-0.52,1.55-1.01,3.11-1.49,4.66c-0.09,0.29-0.18,0.58-0.27,0.88
		c-0.48,1.58-0.94,3.16-1.38,4.74c-0.09,0.31-0.17,0.62-0.25,0.92c-0.45,1.63-0.88,3.25-1.28,4.88c-0.03,0.13-0.06,0.25-0.09,0.38
		c-0.38,1.54-0.74,3.09-1.08,4.63c-0.06,0.26-0.12,0.52-0.17,0.79c-0.34,1.57-0.66,3.13-0.95,4.7c-0.06,0.32-0.12,0.64-0.18,0.97
		c-0.29,1.55-0.56,3.09-0.8,4.64c-0.02,0.11-0.03,0.22-0.05,0.33c-0.23,1.47-0.44,2.94-0.63,4.4c-0.04,0.3-0.08,0.59-0.12,0.89
		c-0.18,1.47-0.35,2.94-0.49,4.41c-0.03,0.29-0.05,0.59-0.08,0.88c-0.13,1.37-0.24,2.74-0.33,4.1c-0.01,0.17-0.03,0.34-0.04,0.51
		c-0.09,1.47-0.16,2.94-0.21,4.4c-0.01,0.34-0.02,0.67-0.03,1c-0.04,1.39-0.06,2.78-0.06,4.16c0,0.2,0.01,0.41,0.01,0.61
		c0.01,1.43,0.05,2.83,0.1,4.22c0.01,0.24,0.02,0.48,0.03,0.72c0.06,1.44,0.15,2.85,0.26,4.25c0.02,0.27,0.04,0.55,0.07,0.82
		c0.13,1.48,0.27,2.94,0.45,4.37c0.02,0.19,0.05,0.38,0.08,0.57c0.2,1.54,0.42,3.06,0.68,4.55c0.01,0.05,0.02,0.1,0.03,0.15
		c0.3,1.69,0.63,3.34,1,4.96c0,0,0,0.01,0,0.01c0.2,0.88,0.41,1.74,0.63,2.59c0.07,0.28,0.15,0.56,0.23,0.84
		c0.15,0.57,0.31,1.13,0.47,1.69c0.08,0.27,0.16,0.54,0.25,0.81c0.18,0.61,0.37,1.21,0.56,1.8c0.1,0.32,0.21,0.63,0.32,0.95
		c0.18,0.53,0.37,1.07,0.56,1.59c0.11,0.3,0.22,0.6,0.33,0.89c0.28,0.73,0.56,1.44,0.85,2.15c0.08,0.19,0.15,0.39,0.24,0.57
		c0.37,0.87,0.76,1.73,1.15,2.58c0.07,0.15,0.15,0.3,0.22,0.45c0.55,1.15,1.13,2.28,1.73,3.38c0,0,0,0,0,0
		c0.6,1.09,1.24,2.15,1.89,3.18c0.08,0.13,0.16,0.26,0.24,0.39c0.53,0.82,1.07,1.62,1.62,2.4c0.13,0.18,0.26,0.35,0.38,0.53
		c0.5,0.69,1.01,1.36,1.53,2.01c0.09,0.12,0.18,0.24,0.28,0.35c0.59,0.73,1.21,1.44,1.83,2.13c0.15,0.16,0.3,0.32,0.44,0.48
		c0.57,0.62,1.16,1.23,1.76,1.82c0.08,0.08,0.16,0.16,0.24,0.24c0.66,0.64,1.34,1.26,2.03,1.86c0.17,0.15,0.33,0.29,0.5,0.43
		c0.66,0.56,1.33,1.11,2.01,1.63c0.05,0.04,0.1,0.08,0.15,0.12c0.73,0.55,1.47,1.08,2.22,1.58c0.18,0.12,0.37,0.25,0.55,0.37
		c0.76,0.5,1.53,0.99,2.32,1.45l-33.35-19.38c-0.79-0.46-1.56-0.95-2.32-1.45c-0.18-0.12-0.37-0.24-0.55-0.37
		c-0.75-0.51-1.49-1.03-2.22-1.58c-0.05-0.04-0.1-0.08-0.15-0.12c-0.68-0.52-1.35-1.07-2.01-1.63c-0.17-0.14-0.33-0.28-0.5-0.43
		c-0.69-0.6-1.37-1.22-2.03-1.86c-0.08-0.08-0.16-0.16-0.24-0.24c-0.6-0.59-1.18-1.2-1.76-1.82c-0.15-0.16-0.3-0.32-0.44-0.48
		c-0.62-0.69-1.23-1.4-1.83-2.13c-0.09-0.11-0.18-0.23-0.28-0.35c-0.52-0.65-1.03-1.33-1.53-2.01c-0.13-0.18-0.26-0.35-0.38-0.53
		c-0.56-0.78-1.1-1.58-1.62-2.4c-0.03-0.05-0.06-0.09-0.09-0.14c-0.05-0.08-0.1-0.17-0.15-0.25c-0.65-1.03-1.28-2.09-1.89-3.18
		c0,0,0,0,0,0c-0.6-1.09-1.18-2.22-1.73-3.38c-0.04-0.09-0.1-0.18-0.14-0.27c-0.03-0.06-0.05-0.12-0.08-0.17
		c-0.4-0.84-0.78-1.7-1.15-2.58c-0.08-0.19-0.16-0.38-0.24-0.57c-0.29-0.71-0.58-1.42-0.85-2.15c-0.05-0.14-0.11-0.28-0.17-0.42
		c-0.06-0.16-0.11-0.32-0.17-0.48c-0.19-0.52-0.38-1.05-0.56-1.59c-0.11-0.32-0.22-0.63-0.32-0.95c-0.19-0.59-0.38-1.2-0.56-1.8
		c-0.06-0.21-0.14-0.42-0.2-0.64c-0.02-0.06-0.03-0.11-0.05-0.17c-0.16-0.56-0.32-1.12-0.47-1.69c-0.08-0.28-0.16-0.56-0.23-0.84
		c-0.22-0.85-0.43-1.72-0.63-2.59c0,0,0,0,0,0c0,0,0,0,0-0.01c-0.37-1.62-0.7-3.27-1-4.96c-0.01-0.04-0.01-0.07-0.02-0.1
		c0-0.01,0-0.03-0.01-0.04c-0.26-1.49-0.48-3.01-0.68-4.55c-0.02-0.12-0.04-0.24-0.05-0.36c-0.01-0.07-0.01-0.14-0.02-0.2
		c-0.18-1.43-0.33-2.89-0.45-4.37c-0.01-0.14-0.03-0.28-0.04-0.42c-0.01-0.13-0.01-0.27-0.02-0.4c-0.11-1.4-0.2-2.81-0.26-4.25
		c0-0.08-0.01-0.16-0.02-0.24c-0.01-0.16-0.01-0.32-0.01-0.48c-0.05-1.39-0.09-2.8-0.1-4.22C70.99,267.71,70.99,267.61,70.99,267.5z
		"/>
	<g>
		<g>
			<polygon class="st3" points="206.67,131 206.71,145.35 199.77,149.35 199.73,135.01 			"/>
		</g>
		<g>
			<polygon class="st3" points="207.13,291.98 207.17,306.32 200.23,310.33 200.19,295.98 			"/>
		</g>
		<g>
			<polygon class="st3" points="279.73,172.63 279.75,180.6 267.27,187.81 267.25,179.84 			"/>
		</g>
		<g>
			<polygon class="st3" points="139.64,253.51 139.66,261.48 127.18,268.69 127.15,260.72 			"/>
		</g>
	</g>
	<g>
		<path class="st5" d="M273.57,177c1.55-0.82,2.78-0.06,2.78,1.72c0.01,1.78-1.21,3.95-2.76,4.93L211,222.75
			c-2.07,6.49-6.69,12.84-12.07,15.94c-4.99,2.88-9.35,2.23-11.62-1.14l-6.83,4.26l-0.04-15.48l6.83-3.62
			c2.26-5.99,6.59-11.66,11.58-14.54c5.38-3.1,10.02-2.1,12.12,1.98L273.57,177z M203.39,227.5c1.72-2.53,2.83-5.59,2.83-8.3
			c-0.01-2.7-1.13-4.47-2.86-5.01c-1.25-0.39-2.81-0.15-4.49,0.82c-1.47,0.85-2.84,2.15-4,3.67c-2,2.67-3.32,6.03-3.31,8.98
			c0.01,2.95,1.34,4.79,3.35,5.14c1.16,0.2,2.53-0.09,4-0.94C200.6,230.89,202.15,229.34,203.39,227.5"/>
	</g>
	<path class="st5" d="M210.32,48.14c-0.01,0.13-0.02,0.26-0.04,0.38c-0.02,0.1-0.05,0.21-0.08,0.31c-0.03,0.12-0.06,0.24-0.1,0.37
		c-0.04,0.1-0.08,0.2-0.13,0.3c-0.06,0.13-0.11,0.26-0.18,0.38c-0.05,0.09-0.11,0.18-0.16,0.27c-0.09,0.14-0.18,0.29-0.29,0.43
		c-0.06,0.08-0.13,0.16-0.2,0.25c-0.16,0.19-0.33,0.37-0.52,0.56c-0.07,0.07-0.13,0.13-0.2,0.2c-0.12,0.11-0.25,0.21-0.37,0.31
		c-0.11,0.09-0.22,0.18-0.34,0.27c-0.14,0.1-0.29,0.2-0.44,0.29c-0.15,0.1-0.3,0.2-0.46,0.3c-0.37,0.21-0.75,0.4-1.15,0.58
		c-0.11,0.05-0.23,0.1-0.35,0.15c-0.31,0.13-0.63,0.25-0.96,0.36c-0.12,0.04-0.23,0.08-0.35,0.12c-0.21,0.07-0.42,0.12-0.63,0.18
		c-0.16,0.04-0.32,0.09-0.48,0.13c-0.22,0.05-0.45,0.1-0.67,0.14c-0.15,0.03-0.31,0.07-0.46,0.09c-0.46,0.08-0.92,0.14-1.39,0.19
		c-0.14,0.02-0.29,0.02-0.43,0.04c-0.27,0.02-0.55,0.04-0.83,0.06c-0.18,0.01-0.35,0.01-0.53,0.01c-0.22,0-0.45,0.01-0.67,0
		c-0.19,0-0.37-0.01-0.56-0.02c-0.21-0.01-0.41-0.02-0.62-0.03c-0.19-0.01-0.38-0.03-0.57-0.05c-0.2-0.02-0.41-0.04-0.61-0.07
		c-0.18-0.02-0.37-0.05-0.55-0.08c-0.22-0.03-0.43-0.07-0.65-0.11c-0.17-0.03-0.34-0.07-0.51-0.1c-0.26-0.06-0.51-0.12-0.76-0.19
		c-0.14-0.04-0.28-0.07-0.42-0.11c-0.45-0.13-0.89-0.28-1.31-0.44c-0.21-0.08-0.41-0.17-0.61-0.26c-0.11-0.05-0.22-0.09-0.32-0.14
		c-0.31-0.15-0.61-0.3-0.9-0.47c-1.51-0.87-2.54-1.91-3.1-3.01c-0.34-0.66-0.51-1.35-0.5-2.03l-0.11,39.85
		c-0.01,1.82,1.2,3.65,3.61,5.04c0.29,0.17,0.59,0.32,0.9,0.47c0.1,0.05,0.21,0.09,0.32,0.14c0.18,0.08,0.36,0.16,0.55,0.24
		c0.02,0.01,0.05,0.01,0.07,0.02c0.42,0.17,0.86,0.31,1.31,0.44c0.04,0.01,0.07,0.03,0.11,0.04c0.1,0.03,0.21,0.05,0.31,0.08
		c0.25,0.07,0.5,0.13,0.76,0.19c0.07,0.01,0.13,0.04,0.2,0.05c0.1,0.02,0.2,0.03,0.3,0.05c0.22,0.04,0.43,0.08,0.65,0.11
		c0.09,0.01,0.17,0.03,0.26,0.04c0.09,0.01,0.19,0.02,0.29,0.03c0.2,0.03,0.41,0.05,0.61,0.07c0.1,0.01,0.19,0.02,0.29,0.03
		c0.09,0.01,0.18,0.01,0.27,0.01c0.21,0.01,0.41,0.02,0.62,0.03c0.1,0,0.21,0.01,0.31,0.02c0.08,0,0.17,0,0.25,0
		c0.22,0,0.45,0,0.67,0c0.11,0,0.22,0,0.33,0c0.07,0,0.13-0.01,0.2-0.01c0.28-0.01,0.55-0.03,0.83-0.06
		c0.11-0.01,0.22-0.01,0.33-0.02c0.03,0,0.07-0.01,0.1-0.01c0.47-0.05,0.93-0.11,1.39-0.19c0.02,0,0.05-0.01,0.07-0.01
		c0.13-0.02,0.26-0.06,0.4-0.08c0.23-0.05,0.45-0.09,0.67-0.14c0.16-0.04,0.32-0.09,0.48-0.13c0.21-0.06,0.42-0.11,0.63-0.18
		c0.04-0.01,0.09-0.02,0.13-0.04c0.07-0.02,0.14-0.06,0.22-0.08c0.33-0.11,0.65-0.23,0.96-0.36c0.12-0.05,0.23-0.1,0.35-0.15
		c0.4-0.18,0.79-0.37,1.15-0.58c0.05-0.03,0.1-0.06,0.15-0.09c0.11-0.07,0.21-0.14,0.31-0.21c0.15-0.1,0.3-0.19,0.44-0.29
		c0.12-0.09,0.23-0.18,0.34-0.27c0.13-0.1,0.26-0.2,0.37-0.31c0.02-0.02,0.05-0.04,0.08-0.06c0.05-0.04,0.08-0.09,0.13-0.14
		c0.19-0.18,0.36-0.37,0.52-0.56c0.03-0.04,0.08-0.08,0.11-0.12c0.03-0.04,0.05-0.08,0.08-0.12c0.1-0.14,0.2-0.28,0.29-0.43
		c0.04-0.06,0.09-0.12,0.12-0.18c0.02-0.03,0.03-0.06,0.04-0.09c0.07-0.13,0.12-0.25,0.18-0.38c0.03-0.07,0.08-0.15,0.1-0.22
		c0.01-0.03,0.01-0.05,0.02-0.08c0.04-0.12,0.07-0.24,0.1-0.37c0.02-0.08,0.05-0.16,0.07-0.25c0-0.02,0-0.04,0.01-0.07
		c0.02-0.13,0.03-0.26,0.04-0.39c0.01-0.08,0.03-0.17,0.03-0.25c0-0.04,0-0.07,0-0.11l0.11-39.85
		C210.35,47.9,210.33,48.02,210.32,48.14z"/>
	<g>
		<path class="st3" d="M221.94,46.36c-0.01,0.06-0.02,0.11-0.03,0.17c-0.07,0.38-0.16,0.77-0.29,1.14
			c-0.02,0.06-0.04,0.11-0.06,0.17c-0.13,0.38-0.29,0.75-0.47,1.12c-0.03,0.06-0.06,0.12-0.09,0.18c-0.2,0.37-0.42,0.75-0.67,1.11
			c-0.04,0.05-0.08,0.11-0.12,0.16c-0.24,0.33-0.5,0.66-0.79,0.98c-0.05,0.06-0.1,0.12-0.16,0.19c-0.33,0.36-0.69,0.71-1.07,1.05
			c-0.06,0.05-0.11,0.1-0.17,0.15c-0.38,0.33-0.8,0.66-1.24,0.98c-0.06,0.05-0.13,0.09-0.19,0.14c-0.48,0.33-0.98,0.66-1.52,0.97
			c-0.52,0.3-1.06,0.58-1.62,0.85c-0.15,0.07-0.29,0.14-0.44,0.21c-0.5,0.23-1.01,0.45-1.53,0.65c-0.07,0.03-0.13,0.06-0.2,0.08
			c-0.56,0.21-1.14,0.41-1.72,0.59c-0.4,0.13-0.82,0.24-1.23,0.35c-0.31,0.09-0.63,0.18-0.95,0.25c-0.43,0.11-0.88,0.19-1.32,0.28
			c-0.32,0.07-0.64,0.14-0.97,0.2c-0.13,0.02-0.27,0.04-0.41,0.06c-0.55,0.09-1.1,0.17-1.66,0.23c-0.16,0.02-0.32,0.04-0.49,0.06
			c-0.32,0.03-0.64,0.05-0.96,0.08c-0.54,0.04-1.08,0.08-1.62,0.11c-0.35,0.02-0.69,0.02-1.04,0.03c-0.44,0.01-0.87,0.01-1.31,0.01
			c-0.37,0-0.73-0.02-1.1-0.03c-0.4-0.02-0.81-0.04-1.21-0.06c-0.37-0.03-0.74-0.06-1.11-0.09c-0.4-0.04-0.8-0.08-1.2-0.13
			c-0.36-0.05-0.72-0.1-1.07-0.15c-0.43-0.07-0.85-0.14-1.27-0.22c-0.33-0.06-0.66-0.13-0.99-0.2c-0.5-0.11-1-0.23-1.49-0.36
			c-0.32-0.08-0.64-0.16-0.95-0.26c-0.17-0.05-0.34-0.1-0.5-0.16c-0.49-0.15-0.98-0.32-1.45-0.5c-0.14-0.05-0.28-0.1-0.42-0.15
			c-0.43-0.17-0.85-0.35-1.27-0.54c-0.21-0.09-0.42-0.17-0.62-0.27c-0.6-0.29-1.19-0.59-1.76-0.92c-4.72-2.73-7.08-6.31-7.07-9.88
			l-0.03,11.95c-0.01,3.57,2.35,7.15,7.07,9.88c0.56,0.33,1.15,0.63,1.76,0.92c0.2,0.09,0.41,0.18,0.61,0.27
			c0.36,0.16,0.71,0.33,1.08,0.47c0.06,0.03,0.13,0.05,0.19,0.07c0.14,0.05,0.28,0.1,0.42,0.15c0.48,0.18,0.96,0.34,1.46,0.5
			c0.17,0.05,0.33,0.11,0.5,0.16c0.11,0.03,0.22,0.07,0.34,0.1c0.2,0.06,0.41,0.1,0.61,0.15c0.49,0.13,0.99,0.25,1.49,0.36
			c0.13,0.03,0.26,0.07,0.4,0.1c0.2,0.04,0.4,0.07,0.6,0.1c0.42,0.08,0.84,0.15,1.27,0.22c0.17,0.03,0.34,0.06,0.51,0.09
			c0.19,0.03,0.38,0.04,0.56,0.06c0.4,0.05,0.8,0.09,1.2,0.13c0.19,0.02,0.38,0.05,0.57,0.06c0.18,0.01,0.36,0.02,0.54,0.03
			c0.4,0.03,0.81,0.05,1.22,0.07c0.2,0.01,0.41,0.03,0.61,0.03c0.16,0,0.33,0,0.49,0c0.44,0.01,0.88,0,1.31-0.01
			c0.22,0,0.43,0,0.65,0c0.13,0,0.26-0.02,0.38-0.03c0.54-0.02,1.08-0.06,1.62-0.11c0.22-0.02,0.44-0.02,0.65-0.04
			c0.1-0.01,0.21-0.03,0.31-0.04c0.16-0.02,0.32-0.04,0.48-0.06c0.56-0.07,1.11-0.14,1.66-0.23c0.14-0.02,0.27-0.04,0.41-0.06
			c0.06-0.01,0.13-0.02,0.2-0.03c0.26-0.05,0.51-0.11,0.77-0.16c0.44-0.09,0.89-0.18,1.32-0.28c0.32-0.08,0.63-0.17,0.94-0.25
			c0.41-0.11,0.83-0.22,1.23-0.35c0.09-0.03,0.18-0.05,0.26-0.08c0.49-0.16,0.98-0.33,1.45-0.51c0.07-0.03,0.13-0.06,0.2-0.08
			c0.52-0.2,1.04-0.42,1.54-0.66c0.15-0.07,0.29-0.14,0.44-0.21c0.55-0.27,1.1-0.55,1.62-0.85c0.1-0.06,0.2-0.11,0.29-0.17
			c0.43-0.26,0.83-0.53,1.22-0.8c0.06-0.05,0.13-0.09,0.19-0.14c0.44-0.32,0.85-0.64,1.24-0.98c0.06-0.05,0.11-0.1,0.17-0.15
			c0.07-0.06,0.14-0.12,0.21-0.18c0.31-0.28,0.59-0.57,0.86-0.87c0.06-0.06,0.1-0.12,0.16-0.19c0.16-0.18,0.32-0.36,0.47-0.54
			c0.11-0.14,0.22-0.29,0.32-0.44c0.04-0.05,0.08-0.11,0.12-0.16c0.19-0.28,0.37-0.55,0.53-0.83c0.05-0.09,0.1-0.19,0.14-0.28
			c0.03-0.06,0.06-0.12,0.09-0.18c0.15-0.3,0.29-0.6,0.4-0.9c0.03-0.07,0.05-0.15,0.07-0.22c0.02-0.06,0.04-0.11,0.06-0.17
			c0.1-0.32,0.19-0.64,0.26-0.96c0.01-0.06,0.02-0.13,0.03-0.19c0.01-0.06,0.02-0.11,0.03-0.17c0.05-0.34,0.09-0.68,0.1-1.01
			c0-0.07,0-0.14,0-0.21l0.03-11.95C222.04,45.54,222,45.95,221.94,46.36z"/>
		<g>
			<path class="st1" d="M214.98,35.26c9.38,5.42,9.43,14.2,0.1,19.62c-9.32,5.42-24.49,5.42-33.87,0
				c-9.39-5.42-9.44-14.21-0.12-19.62C190.42,29.84,205.59,29.84,214.98,35.26z"/>
		</g>
	</g>
	<g>
		<path class="st5" d="M115.51,121.28c0.06,0.07,0.13,0.15,0.18,0.23c0.05,0.07,0.08,0.14,0.12,0.21c0.05,0.08,0.1,0.16,0.14,0.25
			c0.03,0.07,0.06,0.15,0.09,0.22c0.04,0.1,0.08,0.2,0.11,0.3c0.02,0.07,0.04,0.15,0.06,0.23c0.03,0.12,0.06,0.25,0.07,0.38
			c0.01,0.08,0.02,0.16,0.03,0.24c0.02,0.18,0.02,0.38,0.02,0.57c0,0.07,0,0.14,0,0.21c-0.01,0.12-0.02,0.24-0.03,0.37
			c-0.01,0.11-0.02,0.21-0.04,0.33c-0.02,0.13-0.05,0.26-0.08,0.39c-0.03,0.14-0.05,0.27-0.09,0.41c-0.08,0.31-0.19,0.62-0.3,0.93
			c-0.03,0.09-0.07,0.18-0.11,0.26c-0.1,0.24-0.2,0.47-0.32,0.71c-0.04,0.08-0.08,0.17-0.12,0.25c-0.08,0.15-0.16,0.29-0.24,0.43
			c-0.06,0.11-0.12,0.22-0.19,0.32c-0.09,0.15-0.19,0.29-0.28,0.44c-0.07,0.1-0.13,0.2-0.2,0.3c-0.2,0.29-0.41,0.57-0.64,0.84
			c-0.07,0.09-0.14,0.17-0.21,0.25c-0.13,0.16-0.27,0.32-0.41,0.47c-0.09,0.1-0.18,0.19-0.28,0.29c-0.12,0.12-0.23,0.24-0.36,0.36
			c-0.1,0.1-0.2,0.19-0.31,0.29c-0.11,0.11-0.23,0.21-0.35,0.31c-0.11,0.09-0.22,0.19-0.33,0.28c-0.12,0.1-0.24,0.19-0.36,0.29
			c-0.11,0.09-0.22,0.17-0.33,0.25c-0.13,0.1-0.27,0.19-0.41,0.29c-0.11,0.07-0.22,0.15-0.32,0.21c-0.17,0.11-0.34,0.21-0.5,0.31
			c-0.09,0.05-0.19,0.11-0.28,0.16c-0.31,0.17-0.62,0.33-0.94,0.46c-0.16,0.07-0.31,0.13-0.47,0.19c-0.08,0.03-0.16,0.07-0.24,0.1
			c-0.24,0.09-0.48,0.16-0.73,0.23c-1.27,0.34-2.37,0.34-3.26,0.05c-0.53-0.17-0.99-0.45-1.35-0.81l21.19,21.31
			c0.97,0.98,2.59,1.31,4.61,0.76c0.24-0.06,0.48-0.14,0.73-0.23c0.08-0.03,0.16-0.06,0.24-0.1c0.14-0.05,0.28-0.1,0.42-0.17
			c0.02-0.01,0.03-0.02,0.05-0.02c0.31-0.14,0.63-0.29,0.94-0.46c0.02-0.01,0.05-0.02,0.07-0.04c0.07-0.04,0.14-0.09,0.21-0.13
			c0.17-0.1,0.34-0.2,0.51-0.31c0.04-0.03,0.09-0.05,0.13-0.08c0.06-0.04,0.13-0.09,0.19-0.13c0.14-0.09,0.27-0.19,0.41-0.29
			c0.05-0.04,0.11-0.07,0.16-0.11c0.06-0.04,0.11-0.09,0.17-0.14c0.12-0.09,0.24-0.19,0.36-0.29c0.06-0.05,0.12-0.09,0.17-0.14
			c0.05-0.04,0.1-0.09,0.15-0.14c0.12-0.1,0.23-0.21,0.35-0.31c0.06-0.05,0.12-0.1,0.17-0.16c0.05-0.04,0.09-0.09,0.13-0.13
			c0.12-0.12,0.24-0.24,0.36-0.36c0.06-0.06,0.12-0.12,0.18-0.18c0.03-0.04,0.06-0.08,0.1-0.11c0.14-0.15,0.28-0.31,0.41-0.47
			c0.05-0.06,0.11-0.12,0.17-0.19c0.02-0.02,0.03-0.04,0.05-0.06c0.22-0.28,0.44-0.56,0.64-0.84c0.01-0.01,0.02-0.03,0.03-0.04
			c0.06-0.08,0.11-0.17,0.17-0.26c0.1-0.14,0.19-0.29,0.28-0.44c0.07-0.11,0.13-0.22,0.19-0.33c0.08-0.14,0.16-0.29,0.24-0.43
			c0.02-0.03,0.04-0.06,0.05-0.09c0.03-0.05,0.05-0.11,0.07-0.16c0.12-0.23,0.22-0.47,0.32-0.71c0.04-0.09,0.07-0.18,0.11-0.26
			c0.12-0.31,0.22-0.62,0.3-0.93c0.01-0.04,0.02-0.08,0.03-0.13c0.02-0.1,0.04-0.19,0.06-0.28c0.03-0.13,0.06-0.26,0.08-0.39
			c0.02-0.11,0.03-0.22,0.04-0.33c0.01-0.12,0.03-0.25,0.03-0.37c0-0.02,0.01-0.05,0.01-0.07c0-0.05-0.01-0.09-0.01-0.14
			c0-0.2,0-0.39-0.02-0.57c0-0.04,0-0.09,0-0.13c0-0.04-0.02-0.07-0.02-0.11c-0.02-0.13-0.04-0.26-0.07-0.38
			c-0.01-0.05-0.02-0.11-0.03-0.16c-0.01-0.03-0.02-0.05-0.03-0.07c-0.03-0.1-0.07-0.2-0.11-0.3c-0.02-0.06-0.04-0.12-0.06-0.17
			c-0.01-0.02-0.02-0.03-0.03-0.05c-0.04-0.09-0.09-0.17-0.14-0.25c-0.03-0.06-0.06-0.12-0.09-0.17c-0.01-0.01-0.02-0.03-0.03-0.04
			c-0.06-0.08-0.12-0.15-0.18-0.23c-0.04-0.05-0.07-0.1-0.12-0.15c-0.02-0.02-0.04-0.04-0.06-0.06l-21.19-21.31
			C115.4,121.13,115.45,121.21,115.51,121.28z"/>
		<g>
			<path class="st3" d="M118.48,113.8c0.03,0.04,0.05,0.07,0.08,0.11c0.17,0.24,0.32,0.5,0.46,0.76c0.02,0.04,0.04,0.08,0.06,0.12
				c0.13,0.27,0.25,0.56,0.35,0.85c0.02,0.05,0.03,0.1,0.05,0.14c0.1,0.3,0.17,0.62,0.23,0.95c0.01,0.05,0.01,0.1,0.02,0.15
				c0.05,0.3,0.08,0.62,0.1,0.94c0,0.06,0.01,0.12,0.01,0.18c0.02,0.37,0.01,0.74-0.01,1.13c0,0.06-0.01,0.11-0.01,0.17
				c-0.03,0.38-0.07,0.78-0.14,1.18c-0.01,0.06-0.02,0.12-0.03,0.17c-0.08,0.43-0.17,0.87-0.29,1.33c-0.12,0.44-0.26,0.88-0.41,1.31
				c-0.04,0.12-0.08,0.23-0.12,0.35c-0.14,0.39-0.3,0.78-0.47,1.17c-0.02,0.05-0.04,0.1-0.06,0.15c-0.18,0.41-0.39,0.82-0.6,1.23
				c-0.15,0.28-0.31,0.56-0.47,0.84c-0.12,0.21-0.24,0.43-0.37,0.64c-0.18,0.29-0.37,0.57-0.55,0.85c-0.14,0.21-0.27,0.42-0.41,0.62
				c-0.06,0.08-0.12,0.17-0.18,0.25c-0.24,0.34-0.5,0.68-0.76,1.01c-0.08,0.1-0.15,0.19-0.23,0.29c-0.15,0.19-0.31,0.37-0.47,0.55
				c-0.26,0.31-0.53,0.62-0.81,0.92c-0.18,0.19-0.36,0.38-0.54,0.57c-0.23,0.24-0.46,0.47-0.7,0.7c-0.2,0.19-0.4,0.38-0.6,0.57
				c-0.22,0.21-0.45,0.41-0.68,0.61c-0.21,0.18-0.43,0.36-0.64,0.54c-0.23,0.19-0.47,0.38-0.71,0.57c-0.22,0.17-0.43,0.33-0.65,0.49
				c-0.26,0.19-0.53,0.38-0.8,0.56c-0.21,0.14-0.42,0.29-0.64,0.42c-0.33,0.21-0.66,0.41-0.99,0.6c-0.21,0.12-0.43,0.25-0.64,0.37
				c-0.12,0.06-0.23,0.12-0.35,0.19c-0.35,0.18-0.69,0.35-1.04,0.51c-0.1,0.05-0.2,0.1-0.3,0.14c-0.32,0.14-0.64,0.27-0.96,0.39
				c-0.16,0.06-0.32,0.13-0.48,0.19c-0.48,0.17-0.95,0.32-1.43,0.45c-3.97,1.07-7.14,0.41-9.04-1.5l6.36,6.39
				c1.9,1.91,5.07,2.56,9.04,1.5c0.48-0.13,0.95-0.28,1.43-0.45c0.16-0.06,0.31-0.12,0.47-0.18c0.28-0.11,0.55-0.21,0.83-0.33
				c0.05-0.02,0.09-0.04,0.14-0.07c0.1-0.04,0.2-0.09,0.3-0.14c0.35-0.16,0.7-0.33,1.04-0.51c0.12-0.06,0.24-0.12,0.35-0.19
				c0.08-0.04,0.16-0.08,0.24-0.12c0.14-0.08,0.27-0.17,0.41-0.25c0.33-0.19,0.66-0.39,0.99-0.6c0.09-0.06,0.18-0.1,0.26-0.16
				c0.13-0.08,0.25-0.18,0.37-0.26c0.27-0.18,0.53-0.37,0.79-0.56c0.11-0.08,0.21-0.15,0.32-0.22c0.11-0.09,0.22-0.18,0.33-0.27
				c0.24-0.19,0.48-0.37,0.71-0.57c0.11-0.09,0.23-0.18,0.34-0.27c0.1-0.09,0.2-0.18,0.3-0.27c0.23-0.2,0.46-0.41,0.68-0.61
				c0.11-0.1,0.23-0.2,0.34-0.31c0.09-0.08,0.17-0.18,0.26-0.26c0.24-0.23,0.47-0.47,0.7-0.7c0.11-0.12,0.23-0.23,0.35-0.35
				c0.07-0.07,0.13-0.15,0.19-0.22c0.28-0.3,0.54-0.61,0.81-0.92c0.11-0.13,0.22-0.24,0.32-0.37c0.05-0.06,0.1-0.12,0.15-0.19
				c0.08-0.1,0.15-0.19,0.23-0.29c0.26-0.33,0.51-0.67,0.76-1.01c0.06-0.08,0.12-0.17,0.18-0.25c0.03-0.04,0.06-0.08,0.09-0.12
				c0.11-0.16,0.21-0.33,0.32-0.5c0.19-0.28,0.38-0.57,0.56-0.86c0.13-0.21,0.25-0.42,0.37-0.64c0.16-0.28,0.32-0.56,0.47-0.85
				c0.03-0.06,0.07-0.12,0.1-0.18c0.18-0.35,0.34-0.7,0.5-1.05c0.02-0.05,0.04-0.1,0.06-0.15c0.17-0.39,0.33-0.78,0.47-1.17
				c0.04-0.11,0.08-0.23,0.12-0.34c0.15-0.44,0.29-0.88,0.41-1.31c0.02-0.08,0.04-0.17,0.06-0.25c0.09-0.37,0.16-0.73,0.23-1.08
				c0.01-0.06,0.02-0.12,0.03-0.18c0.07-0.4,0.11-0.8,0.14-1.18c0-0.06,0.01-0.11,0.01-0.17c0-0.07,0.01-0.14,0.01-0.21
				c0.01-0.32,0.01-0.62,0-0.92c0-0.06-0.01-0.12-0.01-0.18c-0.01-0.18-0.02-0.36-0.04-0.54c-0.02-0.14-0.04-0.27-0.06-0.4
				c-0.01-0.05-0.01-0.1-0.02-0.15c-0.05-0.25-0.1-0.49-0.16-0.73c-0.02-0.08-0.05-0.15-0.07-0.23c-0.02-0.05-0.03-0.1-0.05-0.14
				c-0.08-0.24-0.17-0.47-0.27-0.7c-0.02-0.05-0.05-0.1-0.08-0.16c-0.02-0.04-0.04-0.08-0.06-0.12c-0.11-0.22-0.24-0.44-0.37-0.65
				c-0.03-0.04-0.06-0.08-0.08-0.12c-0.03-0.04-0.05-0.07-0.08-0.11c-0.15-0.21-0.31-0.41-0.49-0.59c-0.04-0.04-0.07-0.08-0.11-0.11
				l-6.36-6.39C118.1,113.31,118.3,113.55,118.48,113.8z"/>
			<g>
				<path class="st1" d="M108.84,111.6c7.89-2.11,12.6,2.54,10.52,10.41c-2.08,7.86-10.17,15.95-18.06,18.06
					c-7.9,2.12-12.61-2.54-10.53-10.4C92.86,121.8,100.95,113.71,108.84,111.6z"/>
			</g>
		</g>
	</g>
	<g>
		<polygon class="st5" points="404.4,239.54 368.99,266.05 376.81,237.61 359.37,227.54 370.32,198.18 394.88,212.36 383.97,227.75 
					"/>
	</g>
	<g>
		<path class="st0" d="M352.45,382.83c3.02-1.75,5.76-1.89,7.72-0.72l6.77,3.91l-15.44,26.42l-6.77-3.91
			c-1.92-1.15-3.1-3.55-3.1-6.96C341.63,394.67,346.47,386.28,352.45,382.83z"/>
		<polygon class="st1" points="193.72,423.67 193.72,440.72 240.31,467.98 244.78,447.26 		"/>
		<g>
			<polygon class="st0" points="281.69,426.06 281.69,444.2 281.45,444.34 251.88,427.15 235.18,417.45 234.99,351.03 
				281.55,378.08 281.6,395.48 			"/>
		</g>
		<polygon class="st0" points="281.69,395.43 281.69,444.2 281.45,444.34 240.31,467.98 240.31,451.15 251.88,427.15 262.36,405.41 
			281.6,395.48 		"/>
		<g>
			<polygon class="st3" points="234.99,351.03 281.55,378.08 382.05,320.06 335.49,293.01 			"/>
		</g>
		<g>
			<polygon class="st1" points="382.24,386.4 372.09,392.23 343.86,408.45 281.74,444.17 281.72,436.97 281.69,426.79 
				281.69,426.06 281.6,395.48 281.55,378.08 382.05,320.06 382.22,378.95 			"/>
		</g>
		<g>
			<polygon class="st3" points="382.24,386.4 372.09,392.23 343.86,408.45 281.74,444.17 281.72,436.97 345.15,400.35 
				370.81,385.54 382.22,378.95 			"/>
		</g>
		<g>
			<polygon class="st5" points="281.69,395.39 263.38,405.96 216.25,378.7 234.66,368.07 			"/>
		</g>
		<polygon class="st0" points="216.2,378.71 211.86,386.31 258.99,413.79 263.33,405.97 		"/>
		<polygon class="st5" points="211.86,386.31 207.29,409.66 193.72,423.67 240.53,451.15 254.64,437.68 258.99,413.79 		"/>
		<polygon class="st1" points="212.94,389.35 256.82,414.76 253.45,434.75 209.25,409.55 		"/>
		<polygon class="st0" points="251.71,437.68 236.07,443.95 203.07,424.66 207.51,412.05 		"/>
		<polygon class="st1" points="277.12,402.28 277.12,421.39 258.99,432.9 262.57,414.22 265.83,408.57 		"/>
		<g>
			<polygon class="st0" points="202.15,434.04 202.13,441.03 196.04,437.52 196.06,430.53 			"/>
		</g>
		<g>
			<polygon class="st0" points="237.55,454.67 237.53,461.67 231.45,458.15 231.47,451.16 			"/>
		</g>
		<g>
			<polygon class="st0" points="229.34,449.71 229.34,450.72 204.36,436.03 204.36,435.02 			"/>
			<polygon class="st0" points="229.34,451.78 229.34,452.78 204.36,438.09 204.36,437.08 			"/>
			<polygon class="st0" points="229.34,453.84 229.34,454.85 204.36,440.15 204.36,439.15 			"/>
			<polygon class="st0" points="229.34,455.9 229.34,456.91 204.36,442.22 204.36,441.21 			"/>
		</g>
		<path class="st3" d="M372.1,391.61c0,0.21-0.01,0.42-0.01,0.62l-28.22,16.22c-0.01-0.18-0.01-0.36-0.01-0.54
			c0-2.43,0.46-5.01,1.3-7.57c2.23-6.89,7.14-13.61,12.82-16.89c5.7-3.29,10.6-2.23,12.83,2.09
			C371.64,387.13,372.1,389.17,372.1,391.61z"/>
		<path id="Cylinder_face_4_" class="st5" d="M348.4,405.48c0,6.9,4.84,9.7,10.82,6.25c5.97-3.45,10.82-11.84,10.82-18.74
			c0-6.9-4.84-9.7-10.82-6.25C353.25,390.19,348.4,398.58,348.4,405.48z"/>
		<g>
			<path class="st3" d="M367.18,395.12c-0.07,5.04-3.63,11.05-7.94,13.44c-2.62,1.44-4.91,1.23-6.28-0.3c-0.01,0-0.01,0-0.01,0
				c-0.9-0.98-1.41-2.52-1.38-4.5c0.07-5.04,3.63-11.05,7.94-13.44c1.38-0.77,2.68-1.06,3.79-0.95h0.01
				C365.67,389.61,367.23,391.7,367.18,395.12z"/>
		</g>
		<g>
			<path class="st1" d="M364.69,393.87c-0.07,5.04-3.63,11.05-7.94,13.44c-1.38,0.77-2.68,1.06-3.79,0.95c-0.01,0-0.01,0-0.01,0
				c-0.9-0.98-1.41-2.52-1.38-4.5c0.07-5.04,3.63-11.05,7.94-13.44c1.38-0.77,2.68-1.06,3.79-0.95h0.01
				C364.2,390.35,364.72,391.89,364.69,393.87z"/>
		</g>
		<path class="st0" d="M257.17,437.63c3.02-1.75,5.76-1.89,7.72-0.72l6.77,3.91l-15.44,26.42l-6.77-3.91
			c-1.92-1.15-3.1-3.55-3.1-6.96C246.35,449.47,251.2,441.08,257.17,437.63z"/>
		<path class="st1" d="M276.82,446.41c0,0.21-0.01,0.42-0.01,0.62l-28.22,16.22c-0.01-0.18-0.01-0.36-0.01-0.54
			c0-2.43,0.46-5.01,1.3-7.57c2.23-6.89,7.14-13.61,12.82-16.89c5.7-3.29,10.6-2.23,12.83,2.09
			C276.36,441.93,276.82,443.97,276.82,446.41z"/>
		<path id="Cylinder_face_1_" class="st5" d="M253.13,460.28c0,6.9,4.84,9.7,10.82,6.25c5.97-3.45,10.82-11.84,10.82-18.74
			c0-6.9-4.84-9.7-10.82-6.25C257.97,444.99,253.13,453.38,253.13,460.28z"/>
		<g>
			<path class="st3" d="M271.9,449.92c-0.07,5.04-3.63,11.05-7.94,13.44c-2.62,1.44-4.91,1.23-6.28-0.3c-0.01,0-0.01,0-0.01,0
				c-0.9-0.98-1.41-2.52-1.38-4.5c0.07-5.04,3.63-11.05,7.94-13.44c1.38-0.77,2.68-1.06,3.79-0.95h0.01
				C270.39,444.41,271.95,446.5,271.9,449.92z"/>
		</g>
		<g>
			<path class="st1" d="M269.41,448.67c-0.07,5.04-3.63,11.05-7.94,13.44c-1.38,0.77-2.68,1.06-3.79,0.95c-0.01,0-0.01,0-0.01,0
				c-0.9-0.98-1.41-2.52-1.38-4.5c0.07-5.04,3.63-11.05,7.94-13.44c1.38-0.77,2.68-1.06,3.79-0.95h0.01
				C268.93,445.15,269.44,446.69,269.41,448.67z"/>
		</g>
	</g>
</g>
</svg>
